<svg width="23" height="27" viewBox="0 0 23 27" fill="none" xmlns="http://www.w3.org/2000/svg">
<path fill-rule="evenodd" clip-rule="evenodd" d="M9.47523 23.2948C10.1011 23.992 10.9047 24.375 11.7384 24.375H11.7396C12.577 24.375 13.3842 23.992 14.0113 23.2936C14.3472 22.9226 14.92 22.8924 15.2909 23.2271C15.6631 23.5618 15.6933 24.1358 15.3586 24.5067C14.3823 25.5906 13.0978 26.1875 11.7396 26.1875H11.7372C10.3827 26.1863 9.10065 25.5894 8.12794 24.5055C7.79323 24.1346 7.82344 23.5606 8.1956 23.2271C8.56777 22.8912 9.14052 22.9214 9.47523 23.2948ZM11.7986 0.208344C17.1697 0.208344 20.7777 4.39159 20.7777 8.29813C20.7777 10.3076 21.2889 11.1595 21.8314 12.0633C22.3679 12.9551 22.9757 13.9676 22.9757 15.8816C22.554 20.7718 17.4488 21.1705 11.7986 21.1705C6.14845 21.1705 1.04203 20.7718 0.625138 15.959C0.621529 13.9676 1.22932 12.9551 1.76582 12.0633L1.95522 11.7445C2.42155 10.943 2.81949 10.0712 2.81949 8.29813C2.81949 4.39159 6.42757 0.208344 11.7986 0.208344ZM11.7986 2.02084C7.57549 2.02084 4.63199 5.32926 4.63199 8.29813C4.63199 10.8103 3.93478 11.9715 3.31853 12.9961C2.82432 13.819 2.43403 14.4691 2.43403 15.8816C2.63582 18.1606 4.1402 19.358 11.7986 19.358C19.4147 19.358 20.9662 18.1074 21.1668 15.8031C21.1632 14.4691 20.7729 13.819 20.2787 12.9961C19.6624 11.9715 18.9652 10.8103 18.9652 8.29813C18.9652 5.32926 16.0217 2.02084 11.7986 2.02084Z" fill="black"/>
</svg>
