<svg width="21" height="18" viewBox="0 0 21 18" fill="none" xmlns="http://www.w3.org/2000/svg">
<path d="M0 8.65718C0 8.18256 0.352692 7.79031 0.810287 7.72823L0.9375 7.71967L17.4175 7.72042L11.4638 1.79101C11.0969 1.42568 11.0956 0.832092 11.4609 0.465189C11.793 0.131639 12.3138 0.10026 12.6814 0.371786L12.7867 0.462334L20.3492 7.99234C20.3976 8.04049 20.4396 8.09261 20.4753 8.14765C20.4853 8.16421 20.4956 8.18116 20.5053 8.19845C20.5142 8.21327 20.5223 8.22866 20.5299 8.24422C20.5405 8.26685 20.5509 8.29024 20.5602 8.3141C20.5679 8.3325 20.5742 8.3504 20.5801 8.36843C20.587 8.3908 20.5937 8.41464 20.5994 8.43884C20.6037 8.45573 20.6071 8.47199 20.6101 8.48832C20.6143 8.51261 20.6178 8.53774 20.6203 8.56318C20.6225 8.58257 20.6238 8.60179 20.6246 8.62103C20.6248 8.6327 20.625 8.64491 20.625 8.65718L20.6245 8.69349C20.6238 8.71189 20.6226 8.73028 20.6208 8.74862L20.625 8.65718C20.625 8.71634 20.6195 8.77422 20.609 8.83034C20.6066 8.84374 20.6037 8.8575 20.6005 8.8712C20.5938 8.89943 20.5862 8.9266 20.5773 8.95325C20.5729 8.96648 20.5679 8.98063 20.5625 8.99467C20.5515 9.02287 20.5396 9.04977 20.5265 9.07596C20.5204 9.08828 20.5136 9.10117 20.5065 9.11394C20.4947 9.13476 20.4827 9.15455 20.4699 9.17383C20.4609 9.18748 20.4509 9.20169 20.4405 9.21568L20.4324 9.22648C20.4072 9.25948 20.3797 9.29075 20.3504 9.32009L20.3493 9.32096L12.7868 16.8522C12.4199 17.2176 11.8263 17.2163 11.461 16.8495C11.1288 16.5159 11.0996 15.9951 11.3727 15.6286L11.4637 15.5236L17.415 9.59543L0.9375 9.59468C0.419733 9.59468 0 9.17494 0 8.65718Z" fill="#0085FF"/>
</svg>
