<svg width="219" height="387" viewBox="0 0 219 387" fill="none" xmlns="http://www.w3.org/2000/svg">
<path d="M15 0C10.5817 -1.93129e-07 7 3.58172 7 8C7 12.4183 10.5817 16 15 16C19.4183 16 23 12.4183 23 8C23 3.58172 19.4183 1.93129e-07 15 0ZM15 371C10.5817 371 6.99998 374.582 6.99998 379C6.99998 383.418 10.5817 387 15 387C19.4183 387 23 383.418 23 379C23 374.582 19.4183 371 15 371ZM13.5 8L13.5 379L16.5 379L16.5 8L13.5 8Z" fill="black"/>
<line y1="72.5" x2="29" y2="72.5" stroke="black" stroke-width="3"/>
<path d="M57.864 68L55.4 63.648H54.344V68H52.104V56.832H56.296C57.16 56.832 57.896 56.9867 58.504 57.296C59.112 57.5947 59.5653 58.0053 59.864 58.528C60.1733 59.04 60.328 59.616 60.328 60.256C60.328 60.992 60.1147 61.6587 59.688 62.256C59.2613 62.8427 58.6267 63.248 57.784 63.472L60.456 68H57.864ZM54.344 61.968H56.216C56.824 61.968 57.2773 61.824 57.576 61.536C57.8747 61.2373 58.024 60.8267 58.024 60.304C58.024 59.792 57.8747 59.3973 57.576 59.12C57.2773 58.832 56.824 58.688 56.216 58.688H54.344V61.968ZM66.29 68.144C65.4367 68.144 64.6687 67.9573 63.986 67.584C63.3033 67.2 62.7647 66.6613 62.37 65.968C61.986 65.2747 61.794 64.4747 61.794 63.568C61.794 62.6613 61.9913 61.8613 62.386 61.168C62.7913 60.4747 63.3407 59.9413 64.034 59.568C64.7273 59.184 65.5007 58.992 66.354 58.992C67.2073 58.992 67.9807 59.184 68.674 59.568C69.3673 59.9413 69.9113 60.4747 70.306 61.168C70.7113 61.8613 70.914 62.6613 70.914 63.568C70.914 64.4747 70.706 65.2747 70.29 65.968C69.8847 66.6613 69.33 67.2 68.626 67.584C67.9327 67.9573 67.154 68.144 66.29 68.144ZM66.29 66.192C66.6953 66.192 67.074 66.096 67.426 65.904C67.7887 65.7013 68.0767 65.4027 68.29 65.008C68.5033 64.6133 68.61 64.1333 68.61 63.568C68.61 62.7253 68.386 62.08 67.938 61.632C67.5007 61.1733 66.962 60.944 66.322 60.944C65.682 60.944 65.1433 61.1733 64.706 61.632C64.2793 62.08 64.066 62.7253 64.066 63.568C64.066 64.4107 64.274 65.0613 64.69 65.52C65.1167 65.968 65.65 66.192 66.29 66.192ZM80.9251 59.136V68H78.6691V66.88C78.3811 67.264 78.0025 67.568 77.5331 67.792C77.0745 68.0053 76.5731 68.112 76.0291 68.112C75.3358 68.112 74.7225 67.968 74.1891 67.68C73.6558 67.3813 73.2345 66.9493 72.9251 66.384C72.6265 65.808 72.4771 65.1253 72.4771 64.336V59.136H74.7171V64.016C74.7171 64.72 74.8931 65.264 75.2451 65.648C75.5971 66.0213 76.0771 66.208 76.6851 66.208C77.3038 66.208 77.7891 66.0213 78.1411 65.648C78.4931 65.264 78.6691 64.72 78.6691 64.016V59.136H80.9251ZM85.7433 60.976V65.264C85.7433 65.5627 85.8126 65.7813 85.9513 65.92C86.1006 66.048 86.3459 66.112 86.6873 66.112H87.7273V68H86.3193C84.4313 68 83.4873 67.0827 83.4873 65.248V60.976H82.4313V59.136H83.4873V56.944H85.7433V59.136H87.7273V60.976H85.7433ZM97.5784 63.376C97.5784 63.696 97.557 63.984 97.5144 64.24H91.0344C91.0877 64.88 91.3117 65.3813 91.7064 65.744C92.101 66.1067 92.5864 66.288 93.1624 66.288C93.9944 66.288 94.5864 65.9307 94.9384 65.216H97.3544C97.0984 66.0693 96.6077 66.7733 95.8824 67.328C95.157 67.872 94.2664 68.144 93.2104 68.144C92.357 68.144 91.589 67.9573 90.9064 67.584C90.2344 67.2 89.7064 66.6613 89.3224 65.968C88.949 65.2747 88.7624 64.4747 88.7624 63.568C88.7624 62.6507 88.949 61.8453 89.3224 61.152C89.6957 60.4587 90.2184 59.9253 90.8904 59.552C91.5624 59.1787 92.3357 58.992 93.2104 58.992C94.053 58.992 94.805 59.1733 95.4664 59.536C96.1384 59.8987 96.6557 60.416 97.0184 61.088C97.3917 61.7493 97.5784 62.512 97.5784 63.376ZM95.2584 62.736C95.2477 62.16 95.0397 61.7013 94.6344 61.36C94.229 61.008 93.733 60.832 93.1464 60.832C92.5917 60.832 92.1224 61.0027 91.7384 61.344C91.365 61.6747 91.1357 62.1387 91.0504 62.736H95.2584ZM108.21 68.112C107.165 68.112 106.205 67.8667 105.33 67.376C104.455 66.8853 103.762 66.208 103.25 65.344C102.738 64.4693 102.482 63.4827 102.482 62.384C102.482 61.296 102.738 60.32 103.25 59.456C103.762 58.5813 104.455 57.8987 105.33 57.408C106.205 56.9173 107.165 56.672 108.21 56.672C109.266 56.672 110.226 56.9173 111.09 57.408C111.965 57.8987 112.653 58.5813 113.154 59.456C113.666 60.32 113.922 61.296 113.922 62.384C113.922 63.4827 113.666 64.4693 113.154 65.344C112.653 66.208 111.965 66.8853 111.09 67.376C110.215 67.8667 109.255 68.112 108.21 68.112ZM108.21 66.112C108.882 66.112 109.474 65.9627 109.986 65.664C110.498 65.3547 110.898 64.9173 111.186 64.352C111.474 63.7867 111.618 63.1307 111.618 62.384C111.618 61.6373 111.474 60.9867 111.186 60.432C110.898 59.8667 110.498 59.4347 109.986 59.136C109.474 58.8373 108.882 58.688 108.21 58.688C107.538 58.688 106.941 58.8373 106.418 59.136C105.906 59.4347 105.506 59.8667 105.218 60.432C104.93 60.9867 104.786 61.6373 104.786 62.384C104.786 63.1307 104.93 63.7867 105.218 64.352C105.506 64.9173 105.906 65.3547 106.418 65.664C106.941 65.9627 107.538 66.112 108.21 66.112ZM119.284 65.936L121.524 59.136H123.908L120.628 68H117.908L114.644 59.136H117.044L119.284 65.936ZM133.407 63.376C133.407 63.696 133.385 63.984 133.343 64.24H126.863C126.916 64.88 127.14 65.3813 127.535 65.744C127.929 66.1067 128.415 66.288 128.991 66.288C129.823 66.288 130.415 65.9307 130.767 65.216H133.183C132.927 66.0693 132.436 66.7733 131.711 67.328C130.985 67.872 130.095 68.144 129.039 68.144C128.185 68.144 127.417 67.9573 126.735 67.584C126.063 67.2 125.535 66.6613 125.151 65.968C124.777 65.2747 124.59 64.4747 124.59 63.568C124.59 62.6507 124.777 61.8453 125.151 61.152C125.524 60.4587 126.047 59.9253 126.719 59.552C127.391 59.1787 128.164 58.992 129.039 58.992C129.881 58.992 130.633 59.1733 131.295 59.536C131.967 59.8987 132.484 60.416 132.847 61.088C133.22 61.7493 133.407 62.512 133.407 63.376ZM131.087 62.736C131.076 62.16 130.868 61.7013 130.463 61.36C130.057 61.008 129.561 60.832 128.975 60.832C128.42 60.832 127.951 61.0027 127.567 61.344C127.193 61.6747 126.964 62.1387 126.879 62.736H131.087ZM137.282 60.512C137.57 60.0427 137.943 59.6747 138.402 59.408C138.871 59.1413 139.404 59.008 140.002 59.008V61.36H139.41C138.706 61.36 138.172 61.5253 137.81 61.856C137.458 62.1867 137.282 62.7627 137.282 63.584V68H135.042V59.136H137.282V60.512ZM145.206 65.936L147.446 59.136H149.83L146.55 68H143.83L140.566 59.136H142.966L145.206 65.936ZM152.224 58.08C151.83 58.08 151.499 57.9573 151.232 57.712C150.976 57.456 150.848 57.1413 150.848 56.768C150.848 56.3947 150.976 56.0853 151.232 55.84C151.499 55.584 151.83 55.456 152.224 55.456C152.619 55.456 152.944 55.584 153.2 55.84C153.467 56.0853 153.6 56.3947 153.6 56.768C153.6 57.1413 153.467 57.456 153.2 57.712C152.944 57.9573 152.619 58.08 152.224 58.08ZM153.328 59.136V68H151.088V59.136H153.328ZM163.782 63.376C163.782 63.696 163.76 63.984 163.718 64.24H157.238C157.291 64.88 157.515 65.3813 157.91 65.744C158.304 66.1067 158.79 66.288 159.366 66.288C160.198 66.288 160.79 65.9307 161.142 65.216H163.558C163.302 66.0693 162.811 66.7733 162.086 67.328C161.36 67.872 160.47 68.144 159.414 68.144C158.56 68.144 157.792 67.9573 157.11 67.584C156.438 67.2 155.91 66.6613 155.526 65.968C155.152 65.2747 154.965 64.4747 154.965 63.568C154.965 62.6507 155.152 61.8453 155.526 61.152C155.899 60.4587 156.422 59.9253 157.094 59.552C157.766 59.1787 158.539 58.992 159.414 58.992C160.256 58.992 161.008 59.1733 161.67 59.536C162.342 59.8987 162.859 60.416 163.222 61.088C163.595 61.7493 163.782 62.512 163.782 63.376ZM161.462 62.736C161.451 62.16 161.243 61.7013 160.838 61.36C160.432 61.008 159.936 60.832 159.35 60.832C158.795 60.832 158.326 61.0027 157.942 61.344C157.568 61.6747 157.339 62.1387 157.254 62.736H161.462ZM177.705 59.136L175.113 68H172.697L171.081 61.808L169.465 68H167.033L164.425 59.136H166.697L168.265 65.888L169.961 59.136H172.329L173.993 65.872L175.561 59.136H177.705Z" fill="black"/>
<path d="M59.268 95.716L57.461 93.909C57.019 94.0303 56.5683 94.091 56.109 94.091C55.2683 94.091 54.5013 93.896 53.808 93.506C53.1147 93.1073 52.5643 92.557 52.157 91.855C51.7583 91.1443 51.559 90.347 51.559 89.463C51.559 88.579 51.7583 87.786 52.157 87.084C52.5643 86.3733 53.1147 85.823 53.808 85.433C54.5013 85.0343 55.2683 84.835 56.109 84.835C56.9583 84.835 57.7297 85.0343 58.423 85.433C59.1163 85.823 59.6623 86.369 60.061 87.071C60.4597 87.773 60.659 88.5703 60.659 89.463C60.659 90.3297 60.4683 91.1097 60.087 91.803C59.7057 92.4963 59.1813 93.0423 58.514 93.441L60.802 95.716H59.268ZM52.768 89.463C52.768 90.1823 52.911 90.815 53.197 91.361C53.4917 91.907 53.8903 92.3273 54.393 92.622C54.9043 92.9167 55.4763 93.064 56.109 93.064C56.7417 93.064 57.3093 92.9167 57.812 92.622C58.3233 92.3273 58.722 91.907 59.008 91.361C59.3027 90.815 59.45 90.1823 59.45 89.463C59.45 88.735 59.3027 88.1023 59.008 87.565C58.722 87.019 58.3277 86.5987 57.825 86.304C57.3223 86.0093 56.7503 85.862 56.109 85.862C55.4677 85.862 54.8957 86.0093 54.393 86.304C53.8903 86.5987 53.4917 87.019 53.197 87.565C52.911 88.1023 52.768 88.735 52.768 89.463ZM68.5641 86.876V94H67.3811V92.947C67.1558 93.311 66.8395 93.597 66.4321 93.805C66.0335 94.0043 65.5915 94.104 65.1061 94.104C64.5515 94.104 64.0531 93.9913 63.6111 93.766C63.1691 93.532 62.8181 93.1853 62.5581 92.726C62.3068 92.2667 62.1811 91.7077 62.1811 91.049V86.876H63.3511V90.893C63.3511 91.595 63.5288 92.1367 63.8841 92.518C64.2395 92.8907 64.7248 93.077 65.3401 93.077C65.9728 93.077 66.4711 92.882 66.8351 92.492C67.1991 92.102 67.3811 91.5343 67.3811 90.789V86.876H68.5641ZM70.1195 90.412C70.1195 89.684 70.2669 89.047 70.5615 88.501C70.8562 87.9463 71.2592 87.5173 71.7705 87.214C72.2905 86.9107 72.8669 86.759 73.4995 86.759C74.1235 86.759 74.6652 86.8933 75.1245 87.162C75.5839 87.4307 75.9262 87.7687 76.1515 88.176V86.876H77.3475V94H76.1515V92.674C75.9175 93.09 75.5665 93.4367 75.0985 93.714C74.6392 93.9827 74.1019 94.117 73.4865 94.117C72.8539 94.117 72.2819 93.961 71.7705 93.649C71.2592 93.337 70.8562 92.8993 70.5615 92.336C70.2669 91.7727 70.1195 91.1313 70.1195 90.412ZM76.1515 90.425C76.1515 89.8877 76.0432 89.4197 75.8265 89.021C75.6099 88.6223 75.3152 88.319 74.9425 88.111C74.5785 87.8943 74.1755 87.786 73.7335 87.786C73.2915 87.786 72.8885 87.89 72.5245 88.098C72.1605 88.306 71.8702 88.6093 71.6535 89.008C71.4369 89.4067 71.3285 89.8747 71.3285 90.412C71.3285 90.958 71.4369 91.4347 71.6535 91.842C71.8702 92.2407 72.1605 92.5483 72.5245 92.765C72.8885 92.973 73.2915 93.077 73.7335 93.077C74.1755 93.077 74.5785 92.973 74.9425 92.765C75.3152 92.5483 75.6099 92.2407 75.8265 91.842C76.0432 91.4347 76.1515 90.9623 76.1515 90.425ZM87.9137 86.746C88.4684 86.746 88.9624 86.863 89.3957 87.097C89.829 87.3223 90.1714 87.6647 90.4227 88.124C90.674 88.5833 90.7997 89.1423 90.7997 89.801V94H89.6297V89.97C89.6297 89.2593 89.452 88.7177 89.0967 88.345C88.75 87.9637 88.2777 87.773 87.6797 87.773C87.0644 87.773 86.5747 87.9723 86.2107 88.371C85.8467 88.761 85.6647 89.3287 85.6647 90.074V94H84.4947V89.97C84.4947 89.2593 84.317 88.7177 83.9617 88.345C83.615 87.9637 83.1427 87.773 82.5447 87.773C81.9294 87.773 81.4397 87.9723 81.0757 88.371C80.7117 88.761 80.5297 89.3287 80.5297 90.074V94H79.3467V86.876H80.5297V87.903C80.7637 87.5303 81.0757 87.2443 81.4657 87.045C81.8644 86.8457 82.302 86.746 82.7787 86.746C83.3767 86.746 83.9054 86.8803 84.3647 87.149C84.824 87.4177 85.1664 87.812 85.3917 88.332C85.591 87.8293 85.9204 87.4393 86.3797 87.162C86.839 86.8847 87.3504 86.746 87.9137 86.746ZM97.3891 88.189C97.6231 87.7817 97.9697 87.4437 98.4291 87.175C98.8971 86.8977 99.4387 86.759 100.054 86.759C100.687 86.759 101.259 86.9107 101.77 87.214C102.29 87.5173 102.697 87.9463 102.992 88.501C103.287 89.047 103.434 89.684 103.434 90.412C103.434 91.1313 103.287 91.7727 102.992 92.336C102.697 92.8993 102.29 93.337 101.77 93.649C101.259 93.961 100.687 94.117 100.054 94.117C99.4474 94.117 98.9101 93.9827 98.4421 93.714C97.9827 93.4367 97.6317 93.0943 97.3891 92.687V97.38H96.2061V86.876H97.3891V88.189ZM102.225 90.412C102.225 89.8747 102.117 89.4067 101.9 89.008C101.683 88.6093 101.389 88.306 101.016 88.098C100.652 87.89 100.249 87.786 99.8071 87.786C99.3737 87.786 98.9707 87.8943 98.5981 88.111C98.2341 88.319 97.9394 88.6267 97.7141 89.034C97.4974 89.4327 97.3891 89.8963 97.3891 90.425C97.3891 90.9623 97.4974 91.4347 97.7141 91.842C97.9394 92.2407 98.2341 92.5483 98.5981 92.765C98.9707 92.973 99.3737 93.077 99.8071 93.077C100.249 93.077 100.652 92.973 101.016 92.765C101.389 92.5483 101.683 92.2407 101.9 91.842C102.117 91.4347 102.225 90.958 102.225 90.412ZM108.527 86.746C109.065 86.746 109.55 86.863 109.983 87.097C110.417 87.3223 110.755 87.6647 110.997 88.124C111.249 88.5833 111.374 89.1423 111.374 89.801V94H110.204V89.97C110.204 89.2593 110.027 88.7177 109.671 88.345C109.316 87.9637 108.831 87.773 108.215 87.773C107.591 87.773 107.093 87.968 106.72 88.358C106.356 88.748 106.174 89.3157 106.174 90.061V94H104.991V84.38H106.174V87.89C106.408 87.526 106.729 87.2443 107.136 87.045C107.552 86.8457 108.016 86.746 108.527 86.746ZM112.865 90.412C112.865 89.684 113.012 89.047 113.307 88.501C113.601 87.9463 114.004 87.5173 114.516 87.214C115.036 86.9107 115.612 86.759 116.245 86.759C116.869 86.759 117.41 86.8933 117.87 87.162C118.329 87.4307 118.671 87.7687 118.897 88.176V86.876H120.093V94H118.897V92.674C118.663 93.09 118.312 93.4367 117.844 93.714C117.384 93.9827 116.847 94.117 116.232 94.117C115.599 94.117 115.027 93.961 114.516 93.649C114.004 93.337 113.601 92.8993 113.307 92.336C113.012 91.7727 112.865 91.1313 112.865 90.412ZM118.897 90.425C118.897 89.8877 118.788 89.4197 118.572 89.021C118.355 88.6223 118.06 88.319 117.688 88.111C117.324 87.8943 116.921 87.786 116.479 87.786C116.037 87.786 115.634 87.89 115.27 88.098C114.906 88.306 114.615 88.6093 114.399 89.008C114.182 89.4067 114.074 89.8747 114.074 90.412C114.074 90.958 114.182 91.4347 114.399 91.842C114.615 92.2407 114.906 92.5483 115.27 92.765C115.634 92.973 116.037 93.077 116.479 93.077C116.921 93.077 117.324 92.973 117.688 92.765C118.06 92.5483 118.355 92.2407 118.572 91.842C118.788 91.4347 118.897 90.9623 118.897 90.425ZM124.614 94.117C124.068 94.117 123.578 94.026 123.145 93.844C122.711 93.6533 122.369 93.3933 122.118 93.064C121.866 92.726 121.728 92.3403 121.702 91.907H122.924C122.958 92.2623 123.123 92.5527 123.418 92.778C123.721 93.0033 124.115 93.116 124.601 93.116C125.051 93.116 125.407 93.0163 125.667 92.817C125.927 92.6177 126.057 92.3663 126.057 92.063C126.057 91.751 125.918 91.5213 125.641 91.374C125.363 91.218 124.934 91.0663 124.354 90.919C123.825 90.7803 123.392 90.6417 123.054 90.503C122.724 90.3557 122.438 90.1433 122.196 89.866C121.962 89.58 121.845 89.2073 121.845 88.748C121.845 88.384 121.953 88.0503 122.17 87.747C122.386 87.4437 122.694 87.2053 123.093 87.032C123.491 86.85 123.946 86.759 124.458 86.759C125.246 86.759 125.883 86.9583 126.369 87.357C126.854 87.7557 127.114 88.3017 127.149 88.995H125.966C125.94 88.6223 125.788 88.3233 125.511 88.098C125.242 87.8727 124.878 87.76 124.419 87.76C123.994 87.76 123.656 87.851 123.405 88.033C123.153 88.215 123.028 88.4533 123.028 88.748C123.028 88.982 123.101 89.177 123.249 89.333C123.405 89.4803 123.595 89.6017 123.821 89.697C124.055 89.7837 124.375 89.8833 124.783 89.996C125.294 90.1347 125.71 90.2733 126.031 90.412C126.351 90.542 126.624 90.7413 126.85 91.01C127.084 91.2787 127.205 91.6297 127.214 92.063C127.214 92.453 127.105 92.804 126.889 93.116C126.672 93.428 126.364 93.675 125.966 93.857C125.576 94.0303 125.125 94.117 124.614 94.117ZM135.384 90.165C135.384 90.3903 135.371 90.6287 135.345 90.88H129.651C129.694 91.582 129.932 92.1323 130.366 92.531C130.808 92.921 131.341 93.116 131.965 93.116C132.476 93.116 132.901 92.999 133.239 92.765C133.585 92.5223 133.828 92.2017 133.967 91.803H135.241C135.05 92.4877 134.669 93.0467 134.097 93.48C133.525 93.9047 132.814 94.117 131.965 94.117C131.289 94.117 130.682 93.9653 130.145 93.662C129.616 93.3587 129.2 92.9297 128.897 92.375C128.593 91.8117 128.442 91.1617 128.442 90.425C128.442 89.6883 128.589 89.0427 128.884 88.488C129.178 87.9333 129.59 87.5087 130.119 87.214C130.656 86.9107 131.271 86.759 131.965 86.759C132.641 86.759 133.239 86.9063 133.759 87.201C134.279 87.4957 134.677 87.903 134.955 88.423C135.241 88.9343 135.384 89.515 135.384 90.165ZM134.162 89.918C134.162 89.4673 134.062 89.0817 133.863 88.761C133.663 88.4317 133.39 88.1847 133.044 88.02C132.706 87.8467 132.329 87.76 131.913 87.76C131.315 87.76 130.803 87.9507 130.379 88.332C129.963 88.7133 129.724 89.242 129.664 89.918H134.162ZM138.128 84.38V94H136.945V84.38H138.128ZM141.328 84.38V94H140.145V84.38H141.328ZM149.662 86.876V94H148.479V92.947C148.253 93.311 147.937 93.597 147.53 93.805C147.131 94.0043 146.689 94.104 146.204 94.104C145.649 94.104 145.151 93.9913 144.709 93.766C144.267 93.532 143.916 93.1853 143.656 92.726C143.404 92.2667 143.279 91.7077 143.279 91.049V86.876H144.449V90.893C144.449 91.595 144.626 92.1367 144.982 92.518C145.337 92.8907 145.822 93.077 146.438 93.077C147.07 93.077 147.569 92.882 147.933 92.492C148.297 92.102 148.479 91.5343 148.479 90.789V86.876H149.662ZM154.181 94.117C153.635 94.117 153.146 94.026 152.712 93.844C152.279 93.6533 151.937 93.3933 151.685 93.064C151.434 92.726 151.295 92.3403 151.269 91.907H152.491C152.526 92.2623 152.691 92.5527 152.985 92.778C153.289 93.0033 153.683 93.116 154.168 93.116C154.619 93.116 154.974 93.0163 155.234 92.817C155.494 92.6177 155.624 92.3663 155.624 92.063C155.624 91.751 155.486 91.5213 155.208 91.374C154.931 91.218 154.502 91.0663 153.921 90.919C153.393 90.7803 152.959 90.6417 152.621 90.503C152.292 90.3557 152.006 90.1433 151.763 89.866C151.529 89.58 151.412 89.2073 151.412 88.748C151.412 88.384 151.521 88.0503 151.737 87.747C151.954 87.4437 152.262 87.2053 152.66 87.032C153.059 86.85 153.514 86.759 154.025 86.759C154.814 86.759 155.451 86.9583 155.936 87.357C156.422 87.7557 156.682 88.3017 156.716 88.995H155.533C155.507 88.6223 155.356 88.3233 155.078 88.098C154.81 87.8727 154.446 87.76 153.986 87.76C153.562 87.76 153.224 87.851 152.972 88.033C152.721 88.215 152.595 88.4533 152.595 88.748C152.595 88.982 152.669 89.177 152.816 89.333C152.972 89.4803 153.163 89.6017 153.388 89.697C153.622 89.7837 153.943 89.8833 154.35 89.996C154.862 90.1347 155.278 90.2733 155.598 90.412C155.919 90.542 156.192 90.7413 156.417 91.01C156.651 91.2787 156.773 91.6297 156.781 92.063C156.781 92.453 156.673 92.804 156.456 93.116C156.24 93.428 155.932 93.675 155.533 93.857C155.143 94.0303 154.693 94.117 154.181 94.117ZM168.417 90.165C168.417 90.3903 168.404 90.6287 168.378 90.88H162.684C162.727 91.582 162.966 92.1323 163.399 92.531C163.841 92.921 164.374 93.116 164.998 93.116C165.509 93.116 165.934 92.999 166.272 92.765C166.619 92.5223 166.861 92.2017 167 91.803H168.274C168.083 92.4877 167.702 93.0467 167.13 93.48C166.558 93.9047 165.847 94.117 164.998 94.117C164.322 94.117 163.715 93.9653 163.178 93.662C162.649 93.3587 162.233 92.9297 161.93 92.375C161.627 91.8117 161.475 91.1617 161.475 90.425C161.475 89.6883 161.622 89.0427 161.917 88.488C162.212 87.9333 162.623 87.5087 163.152 87.214C163.689 86.9107 164.305 86.759 164.998 86.759C165.674 86.759 166.272 86.9063 166.792 87.201C167.312 87.4957 167.711 87.903 167.988 88.423C168.274 88.9343 168.417 89.515 168.417 90.165ZM167.195 89.918C167.195 89.4673 167.095 89.0817 166.896 88.761C166.697 88.4317 166.424 88.1847 166.077 88.02C165.739 87.8467 165.362 87.76 164.946 87.76C164.348 87.76 163.837 87.9507 163.412 88.332C162.996 88.7133 162.758 89.242 162.697 89.918H167.195ZM176.297 86.876V94H175.114V92.947C174.888 93.311 174.572 93.597 174.165 93.805C173.766 94.0043 173.324 94.104 172.839 94.104C172.284 94.104 171.786 93.9913 171.344 93.766C170.902 93.532 170.551 93.1853 170.291 92.726C170.039 92.2667 169.914 91.7077 169.914 91.049V86.876H171.084V90.893C171.084 91.595 171.261 92.1367 171.617 92.518C171.972 92.8907 172.457 93.077 173.073 93.077C173.705 93.077 174.204 92.882 174.568 92.492C174.932 92.102 175.114 91.5343 175.114 90.789V86.876H176.297ZM181.318 90.412C181.318 89.684 181.465 89.047 181.76 88.501C182.054 87.9463 182.457 87.5173 182.969 87.214C183.489 86.9107 184.069 86.759 184.711 86.759C185.265 86.759 185.781 86.889 186.258 87.149C186.734 87.4003 187.098 87.734 187.35 88.15V84.38H188.546V94H187.35V92.661C187.116 93.0857 186.769 93.4367 186.31 93.714C185.85 93.9827 185.313 94.117 184.698 94.117C184.065 94.117 183.489 93.961 182.969 93.649C182.457 93.337 182.054 92.8993 181.76 92.336C181.465 91.7727 181.318 91.1313 181.318 90.412ZM187.35 90.425C187.35 89.8877 187.241 89.4197 187.025 89.021C186.808 88.6223 186.513 88.319 186.141 88.111C185.777 87.8943 185.374 87.786 184.932 87.786C184.49 87.786 184.087 87.89 183.723 88.098C183.359 88.306 183.068 88.6093 182.852 89.008C182.635 89.4067 182.527 89.8747 182.527 90.412C182.527 90.958 182.635 91.4347 182.852 91.842C183.068 92.2407 183.359 92.5483 183.723 92.765C184.087 92.973 184.49 93.077 184.932 93.077C185.374 93.077 185.777 92.973 186.141 92.765C186.513 92.5483 186.808 92.2407 187.025 91.842C187.241 91.4347 187.35 90.9623 187.35 90.425ZM191.156 85.719C190.931 85.719 190.74 85.641 190.584 85.485C190.428 85.329 190.35 85.1383 190.35 84.913C190.35 84.6877 190.428 84.497 190.584 84.341C190.74 84.185 190.931 84.107 191.156 84.107C191.373 84.107 191.555 84.185 191.702 84.341C191.858 84.497 191.936 84.6877 191.936 84.913C191.936 85.1383 191.858 85.329 191.702 85.485C191.555 85.641 191.373 85.719 191.156 85.719ZM191.728 86.876V94H190.545V86.876H191.728ZM193.302 90.412C193.302 89.684 193.449 89.047 193.744 88.501C194.039 87.9463 194.442 87.5173 194.953 87.214C195.473 86.9107 196.049 86.759 196.682 86.759C197.306 86.759 197.848 86.8933 198.307 87.162C198.766 87.4307 199.109 87.7687 199.334 88.176V86.876H200.53V94H199.334V92.674C199.1 93.09 198.749 93.4367 198.281 93.714C197.822 93.9827 197.284 94.117 196.669 94.117C196.036 94.117 195.464 93.961 194.953 93.649C194.442 93.337 194.039 92.8993 193.744 92.336C193.449 91.7727 193.302 91.1313 193.302 90.412ZM199.334 90.425C199.334 89.8877 199.226 89.4197 199.009 89.021C198.792 88.6223 198.498 88.319 198.125 88.111C197.761 87.8943 197.358 87.786 196.916 87.786C196.474 87.786 196.071 87.89 195.707 88.098C195.343 88.306 195.053 88.6093 194.836 89.008C194.619 89.4067 194.511 89.8747 194.511 90.412C194.511 90.958 194.619 91.4347 194.836 91.842C195.053 92.2407 195.343 92.5483 195.707 92.765C196.071 92.973 196.474 93.077 196.916 93.077C197.358 93.077 197.761 92.973 198.125 92.765C198.498 92.5483 198.792 92.2407 199.009 91.842C199.226 91.4347 199.334 90.9623 199.334 90.425ZM211.096 86.746C211.651 86.746 212.145 86.863 212.578 87.097C213.012 87.3223 213.354 87.6647 213.605 88.124C213.857 88.5833 213.982 89.1423 213.982 89.801V94H212.812V89.97C212.812 89.2593 212.635 88.7177 212.279 88.345C211.933 87.9637 211.46 87.773 210.862 87.773C210.247 87.773 209.757 87.9723 209.393 88.371C209.029 88.761 208.847 89.3287 208.847 90.074V94H207.677V89.97C207.677 89.2593 207.5 88.7177 207.144 88.345C206.798 87.9637 206.325 87.773 205.727 87.773C205.112 87.773 204.622 87.9723 204.258 88.371C203.894 88.761 203.712 89.3287 203.712 90.074V94H202.529V86.876H203.712V87.903C203.946 87.5303 204.258 87.2443 204.648 87.045C205.047 86.8457 205.485 86.746 205.961 86.746C206.559 86.746 207.088 86.8803 207.547 87.149C208.007 87.4177 208.349 87.812 208.574 88.332C208.774 87.8293 209.103 87.4393 209.562 87.162C210.022 86.8847 210.533 86.746 211.096 86.746Z" fill="black"/>
<line y1="191.5" x2="29" y2="191.5" stroke="black" stroke-width="3"/>
<path d="M59.704 175.832V177.64H56.728V187H54.488V177.64H51.512V175.832H59.704ZM62.4744 177.08C62.0797 177.08 61.749 176.957 61.4824 176.712C61.2264 176.456 61.0984 176.141 61.0984 175.768C61.0984 175.395 61.2264 175.085 61.4824 174.84C61.749 174.584 62.0797 174.456 62.4744 174.456C62.869 174.456 63.1944 174.584 63.4504 174.84C63.717 175.085 63.8504 175.395 63.8504 175.768C63.8504 176.141 63.717 176.456 63.4504 176.712C63.1944 176.957 62.869 177.08 62.4744 177.08ZM63.5784 178.136V187H61.3384V178.136H63.5784ZM70.7035 178.008C71.7595 178.008 72.6128 178.344 73.2635 179.016C73.9142 179.677 74.2395 180.605 74.2395 181.8V187H71.9995V182.104C71.9995 181.4 71.8235 180.861 71.4715 180.488C71.1195 180.104 70.6395 179.912 70.0315 179.912C69.4128 179.912 68.9222 180.104 68.5595 180.488C68.2075 180.861 68.0315 181.4 68.0315 182.104V187H65.7915V178.136H68.0315V179.24C68.3302 178.856 68.7088 178.557 69.1675 178.344C69.6368 178.12 70.1488 178.008 70.7035 178.008ZM75.7936 182.568C75.7936 181.651 75.9803 180.851 76.3536 180.168C76.727 179.475 77.2443 178.941 77.9056 178.568C78.567 178.184 79.3243 177.992 80.1776 177.992C81.2763 177.992 82.183 178.269 82.8976 178.824C83.623 179.368 84.1083 180.136 84.3536 181.128H81.9376C81.8096 180.744 81.591 180.445 81.2816 180.232C80.983 180.008 80.6096 179.896 80.1616 179.896C79.5216 179.896 79.015 180.131 78.6416 180.6C78.2683 181.059 78.0816 181.715 78.0816 182.568C78.0816 183.411 78.2683 184.067 78.6416 184.536C79.015 184.995 79.5216 185.224 80.1616 185.224C81.0683 185.224 81.6603 184.819 81.9376 184.008H84.3536C84.1083 184.968 83.623 185.731 82.8976 186.296C82.1723 186.861 81.2656 187.144 80.1776 187.144C79.3243 187.144 78.567 186.957 77.9056 186.584C77.2443 186.2 76.727 185.667 76.3536 184.984C75.9803 184.291 75.7936 183.485 75.7936 182.568ZM87.1306 177.08C86.736 177.08 86.4053 176.957 86.1386 176.712C85.8826 176.456 85.7546 176.141 85.7546 175.768C85.7546 175.395 85.8826 175.085 86.1386 174.84C86.4053 174.584 86.736 174.456 87.1306 174.456C87.5253 174.456 87.8506 174.584 88.1066 174.84C88.3733 175.085 88.5066 175.395 88.5066 175.768C88.5066 176.141 88.3733 176.456 88.1066 176.712C87.8506 176.957 87.5253 177.08 87.1306 177.08ZM88.2346 178.136V187H85.9946V178.136H88.2346ZM89.8717 182.536C89.8717 181.64 90.0477 180.845 90.3997 180.152C90.7624 179.459 91.2531 178.925 91.8718 178.552C92.4904 178.179 93.1784 177.992 93.9358 177.992C94.5118 177.992 95.0611 178.12 95.5838 178.376C96.1064 178.621 96.5224 178.952 96.8318 179.368V175.16H99.1038V187H96.8318V185.688C96.5544 186.125 96.1651 186.477 95.6638 186.744C95.1624 187.011 94.5811 187.144 93.9198 187.144C93.1731 187.144 92.4904 186.952 91.8718 186.568C91.2531 186.184 90.7624 185.645 90.3997 184.952C90.0477 184.248 89.8717 183.443 89.8717 182.536ZM96.8478 182.568C96.8478 182.024 96.7411 181.56 96.5278 181.176C96.3144 180.781 96.0264 180.483 95.6638 180.28C95.3011 180.067 94.9118 179.96 94.4958 179.96C94.0798 179.96 93.6958 180.061 93.3438 180.264C92.9918 180.467 92.7038 180.765 92.4798 181.16C92.2664 181.544 92.1598 182.003 92.1598 182.536C92.1598 183.069 92.2664 183.539 92.4798 183.944C92.7038 184.339 92.9918 184.643 93.3438 184.856C93.7064 185.069 94.0904 185.176 94.4958 185.176C94.9118 185.176 95.3011 185.075 95.6638 184.872C96.0264 184.659 96.3144 184.36 96.5278 183.976C96.7411 183.581 96.8478 183.112 96.8478 182.568ZM109.66 178.136V187H107.404V185.88C107.116 186.264 106.737 186.568 106.268 186.792C105.809 187.005 105.308 187.112 104.764 187.112C104.07 187.112 103.457 186.968 102.924 186.68C102.39 186.381 101.969 185.949 101.66 185.384C101.361 184.808 101.212 184.125 101.212 183.336V178.136H103.452V183.016C103.452 183.72 103.628 184.264 103.98 184.648C104.332 185.021 104.812 185.208 105.42 185.208C106.038 185.208 106.524 185.021 106.876 184.648C107.228 184.264 107.404 183.72 107.404 183.016V178.136H109.66ZM116.782 178.008C117.838 178.008 118.691 178.344 119.342 179.016C119.992 179.677 120.318 180.605 120.318 181.8V187H118.078V182.104C118.078 181.4 117.902 180.861 117.55 180.488C117.198 180.104 116.718 179.912 116.11 179.912C115.491 179.912 115 180.104 114.638 180.488C114.286 180.861 114.11 181.4 114.11 182.104V187H111.87V178.136H114.11V179.24C114.408 178.856 114.787 178.557 115.246 178.344C115.715 178.12 116.227 178.008 116.782 178.008ZM125.056 179.976V184.264C125.056 184.563 125.125 184.781 125.264 184.92C125.413 185.048 125.658 185.112 126 185.112H127.04V187H125.632C123.744 187 122.8 186.083 122.8 184.248V179.976H121.744V178.136H122.8V175.944H125.056V178.136H127.04V179.976H125.056ZM131.887 182.568C131.887 181.651 132.074 180.851 132.447 180.168C132.821 179.475 133.338 178.941 133.999 178.568C134.661 178.184 135.418 177.992 136.271 177.992C137.37 177.992 138.277 178.269 138.991 178.824C139.717 179.368 140.202 180.136 140.447 181.128H138.031C137.903 180.744 137.685 180.445 137.375 180.232C137.077 180.008 136.703 179.896 136.255 179.896C135.615 179.896 135.109 180.131 134.735 180.6C134.362 181.059 134.175 181.715 134.175 182.568C134.175 183.411 134.362 184.067 134.735 184.536C135.109 184.995 135.615 185.224 136.255 185.224C137.162 185.224 137.754 184.819 138.031 184.008H140.447C140.202 184.968 139.717 185.731 138.991 186.296C138.266 186.861 137.359 187.144 136.271 187.144C135.418 187.144 134.661 186.957 133.999 186.584C133.338 186.2 132.821 185.667 132.447 184.984C132.074 184.291 131.887 183.485 131.887 182.568ZM146.024 187.144C145.171 187.144 144.403 186.957 143.72 186.584C143.038 186.2 142.499 185.661 142.104 184.968C141.72 184.275 141.528 183.475 141.528 182.568C141.528 181.661 141.726 180.861 142.12 180.168C142.526 179.475 143.075 178.941 143.768 178.568C144.462 178.184 145.235 177.992 146.088 177.992C146.942 177.992 147.715 178.184 148.408 178.568C149.102 178.941 149.646 179.475 150.04 180.168C150.446 180.861 150.648 181.661 150.648 182.568C150.648 183.475 150.44 184.275 150.024 184.968C149.619 185.661 149.064 186.2 148.36 186.584C147.667 186.957 146.888 187.144 146.024 187.144ZM146.024 185.192C146.43 185.192 146.808 185.096 147.16 184.904C147.523 184.701 147.811 184.403 148.024 184.008C148.238 183.613 148.344 183.133 148.344 182.568C148.344 181.725 148.12 181.08 147.672 180.632C147.235 180.173 146.696 179.944 146.056 179.944C145.416 179.944 144.878 180.173 144.44 180.632C144.014 181.08 143.8 181.725 143.8 182.568C143.8 183.411 144.008 184.061 144.424 184.52C144.851 184.968 145.384 185.192 146.024 185.192ZM157.204 178.008C158.26 178.008 159.113 178.344 159.764 179.016C160.414 179.677 160.74 180.605 160.74 181.8V187H158.5V182.104C158.5 181.4 158.324 180.861 157.972 180.488C157.62 180.104 157.14 179.912 156.532 179.912C155.913 179.912 155.422 180.104 155.06 180.488C154.708 180.861 154.532 181.4 154.532 182.104V187H152.292V178.136H154.532V179.24C154.83 178.856 155.209 178.557 155.668 178.344C156.137 178.12 156.649 178.008 157.204 178.008ZM166.262 187.144C165.536 187.144 164.886 187.016 164.31 186.76C163.734 186.493 163.275 186.136 162.934 185.688C162.603 185.24 162.422 184.744 162.39 184.2H164.646C164.688 184.541 164.854 184.824 165.142 185.048C165.44 185.272 165.808 185.384 166.246 185.384C166.672 185.384 167.003 185.299 167.238 185.128C167.483 184.957 167.606 184.739 167.606 184.472C167.606 184.184 167.456 183.971 167.158 183.832C166.87 183.683 166.406 183.523 165.766 183.352C165.104 183.192 164.56 183.027 164.134 182.856C163.718 182.685 163.355 182.424 163.046 182.072C162.747 181.72 162.598 181.245 162.598 180.648C162.598 180.157 162.736 179.709 163.014 179.304C163.302 178.899 163.707 178.579 164.23 178.344C164.763 178.109 165.387 177.992 166.102 177.992C167.158 177.992 168 178.259 168.63 178.792C169.259 179.315 169.606 180.024 169.67 180.92H167.526C167.494 180.568 167.344 180.291 167.078 180.088C166.822 179.875 166.475 179.768 166.038 179.768C165.632 179.768 165.318 179.843 165.094 179.992C164.88 180.141 164.774 180.349 164.774 180.616C164.774 180.915 164.923 181.144 165.222 181.304C165.52 181.453 165.984 181.608 166.614 181.768C167.254 181.928 167.782 182.093 168.198 182.264C168.614 182.435 168.971 182.701 169.27 183.064C169.579 183.416 169.739 183.885 169.75 184.472C169.75 184.984 169.606 185.443 169.318 185.848C169.04 186.253 168.635 186.573 168.102 186.808C167.579 187.032 166.966 187.144 166.262 187.144ZM179.828 182.376C179.828 182.696 179.807 182.984 179.764 183.24H173.284C173.338 183.88 173.562 184.381 173.956 184.744C174.351 185.107 174.836 185.288 175.412 185.288C176.244 185.288 176.836 184.931 177.188 184.216H179.604C179.348 185.069 178.858 185.773 178.132 186.328C177.407 186.872 176.516 187.144 175.46 187.144C174.607 187.144 173.839 186.957 173.156 186.584C172.484 186.2 171.956 185.661 171.572 184.968C171.199 184.275 171.012 183.475 171.012 182.568C171.012 181.651 171.199 180.845 171.572 180.152C171.946 179.459 172.468 178.925 173.14 178.552C173.812 178.179 174.586 177.992 175.46 177.992C176.303 177.992 177.055 178.173 177.716 178.536C178.388 178.899 178.906 179.416 179.268 180.088C179.642 180.749 179.828 181.512 179.828 182.376ZM177.508 181.736C177.498 181.16 177.29 180.701 176.884 180.36C176.479 180.008 175.983 179.832 175.396 179.832C174.842 179.832 174.372 180.003 173.988 180.344C173.615 180.675 173.386 181.139 173.3 181.736H177.508ZM180.887 182.552C180.887 181.667 181.069 180.883 181.431 180.2C181.805 179.507 182.306 178.968 182.935 178.584C183.565 178.2 184.258 178.008 185.015 178.008C185.645 178.008 186.199 178.131 186.679 178.376C187.17 178.611 187.565 178.915 187.863 179.288V178.136H190.119V191.224H187.863V185.784C187.565 186.168 187.165 186.488 186.663 186.744C186.162 187 185.597 187.128 184.967 187.128C184.221 187.128 183.533 186.936 182.903 186.552C182.285 186.157 181.794 185.613 181.431 184.92C181.069 184.227 180.887 183.437 180.887 182.552ZM187.863 182.568C187.863 182.024 187.751 181.555 187.527 181.16C187.303 180.765 187.01 180.467 186.647 180.264C186.295 180.061 185.917 179.96 185.511 179.96C185.117 179.96 184.738 180.061 184.375 180.264C184.023 180.467 183.735 180.765 183.511 181.16C183.287 181.544 183.175 182.008 183.175 182.552C183.175 183.096 183.287 183.571 183.511 183.976C183.735 184.371 184.023 184.669 184.375 184.872C184.738 185.075 185.117 185.176 185.511 185.176C185.917 185.176 186.295 185.075 186.647 184.872C187.01 184.669 187.303 184.371 187.527 183.976C187.751 183.581 187.863 183.112 187.863 182.568ZM200.675 178.136V187H198.419V185.88C198.131 186.264 197.752 186.568 197.283 186.792C196.824 187.005 196.323 187.112 195.779 187.112C195.086 187.112 194.472 186.968 193.939 186.68C193.406 186.381 192.984 185.949 192.675 185.384C192.376 184.808 192.227 184.125 192.227 183.336V178.136H194.467V183.016C194.467 183.72 194.643 184.264 194.995 184.648C195.347 185.021 195.827 185.208 196.435 185.208C197.054 185.208 197.539 185.021 197.891 184.648C198.243 184.264 198.419 183.72 198.419 183.016V178.136H200.675ZM202.309 182.536C202.309 181.64 202.485 180.845 202.837 180.152C203.2 179.459 203.685 178.925 204.293 178.552C204.912 178.179 205.6 177.992 206.357 177.992C207.019 177.992 207.595 178.125 208.085 178.392C208.587 178.659 208.987 178.995 209.285 179.4V178.136H211.541V187H209.285V185.704C208.997 186.12 208.597 186.467 208.085 186.744C207.584 187.011 207.003 187.144 206.341 187.144C205.595 187.144 204.912 186.952 204.293 186.568C203.685 186.184 203.2 185.645 202.837 184.952C202.485 184.248 202.309 183.443 202.309 182.536ZM209.285 182.568C209.285 182.024 209.179 181.56 208.965 181.176C208.752 180.781 208.464 180.483 208.101 180.28C207.739 180.067 207.349 179.96 206.933 179.96C206.517 179.96 206.133 180.061 205.781 180.264C205.429 180.467 205.141 180.765 204.917 181.16C204.704 181.544 204.597 182.003 204.597 182.536C204.597 183.069 204.704 183.539 204.917 183.944C205.141 184.339 205.429 184.643 205.781 184.856C206.144 185.069 206.528 185.176 206.933 185.176C207.349 185.176 207.739 185.075 208.101 184.872C208.464 184.659 208.752 184.36 208.965 183.976C209.179 183.581 209.285 183.112 209.285 182.568ZM216.337 179.976V184.264C216.337 184.563 216.406 184.781 216.545 184.92C216.694 185.048 216.94 185.112 217.281 185.112H218.321V187H216.913C215.025 187 214.081 186.083 214.081 184.248V179.976H213.025V178.136H214.081V175.944H216.337V178.136H218.321V179.976H216.337Z" fill="black"/>
<path d="M59.268 214.716L57.461 212.909C57.019 213.03 56.5683 213.091 56.109 213.091C55.2683 213.091 54.5013 212.896 53.808 212.506C53.1147 212.107 52.5643 211.557 52.157 210.855C51.7583 210.144 51.559 209.347 51.559 208.463C51.559 207.579 51.7583 206.786 52.157 206.084C52.5643 205.373 53.1147 204.823 53.808 204.433C54.5013 204.034 55.2683 203.835 56.109 203.835C56.9583 203.835 57.7297 204.034 58.423 204.433C59.1163 204.823 59.6623 205.369 60.061 206.071C60.4597 206.773 60.659 207.57 60.659 208.463C60.659 209.33 60.4683 210.11 60.087 210.803C59.7057 211.496 59.1813 212.042 58.514 212.441L60.802 214.716H59.268ZM52.768 208.463C52.768 209.182 52.911 209.815 53.197 210.361C53.4917 210.907 53.8903 211.327 54.393 211.622C54.9043 211.917 55.4763 212.064 56.109 212.064C56.7417 212.064 57.3093 211.917 57.812 211.622C58.3233 211.327 58.722 210.907 59.008 210.361C59.3027 209.815 59.45 209.182 59.45 208.463C59.45 207.735 59.3027 207.102 59.008 206.565C58.722 206.019 58.3277 205.599 57.825 205.304C57.3223 205.009 56.7503 204.862 56.109 204.862C55.4677 204.862 54.8957 205.009 54.393 205.304C53.8903 205.599 53.4917 206.019 53.197 206.565C52.911 207.102 52.768 207.735 52.768 208.463ZM68.5641 205.876V213H67.3811V211.947C67.1558 212.311 66.8395 212.597 66.4321 212.805C66.0335 213.004 65.5915 213.104 65.1061 213.104C64.5515 213.104 64.0531 212.991 63.6111 212.766C63.1691 212.532 62.8181 212.185 62.5581 211.726C62.3068 211.267 62.1811 210.708 62.1811 210.049V205.876H63.3511V209.893C63.3511 210.595 63.5288 211.137 63.8841 211.518C64.2395 211.891 64.7248 212.077 65.3401 212.077C65.9728 212.077 66.4711 211.882 66.8351 211.492C67.1991 211.102 67.3811 210.534 67.3811 209.789V205.876H68.5641ZM70.1195 209.412C70.1195 208.684 70.2669 208.047 70.5615 207.501C70.8562 206.946 71.2592 206.517 71.7705 206.214C72.2905 205.911 72.8669 205.759 73.4995 205.759C74.1235 205.759 74.6652 205.893 75.1245 206.162C75.5839 206.431 75.9262 206.769 76.1515 207.176V205.876H77.3475V213H76.1515V211.674C75.9175 212.09 75.5665 212.437 75.0985 212.714C74.6392 212.983 74.1019 213.117 73.4865 213.117C72.8539 213.117 72.2819 212.961 71.7705 212.649C71.2592 212.337 70.8562 211.899 70.5615 211.336C70.2669 210.773 70.1195 210.131 70.1195 209.412ZM76.1515 209.425C76.1515 208.888 76.0432 208.42 75.8265 208.021C75.6099 207.622 75.3152 207.319 74.9425 207.111C74.5785 206.894 74.1755 206.786 73.7335 206.786C73.2915 206.786 72.8885 206.89 72.5245 207.098C72.1605 207.306 71.8702 207.609 71.6535 208.008C71.4369 208.407 71.3285 208.875 71.3285 209.412C71.3285 209.958 71.4369 210.435 71.6535 210.842C71.8702 211.241 72.1605 211.548 72.5245 211.765C72.8885 211.973 73.2915 212.077 73.7335 212.077C74.1755 212.077 74.5785 211.973 74.9425 211.765C75.3152 211.548 75.6099 211.241 75.8265 210.842C76.0432 210.435 76.1515 209.962 76.1515 209.425ZM87.9137 205.746C88.4684 205.746 88.9624 205.863 89.3957 206.097C89.829 206.322 90.1714 206.665 90.4227 207.124C90.674 207.583 90.7997 208.142 90.7997 208.801V213H89.6297V208.97C89.6297 208.259 89.452 207.718 89.0967 207.345C88.75 206.964 88.2777 206.773 87.6797 206.773C87.0644 206.773 86.5747 206.972 86.2107 207.371C85.8467 207.761 85.6647 208.329 85.6647 209.074V213H84.4947V208.97C84.4947 208.259 84.317 207.718 83.9617 207.345C83.615 206.964 83.1427 206.773 82.5447 206.773C81.9294 206.773 81.4397 206.972 81.0757 207.371C80.7117 207.761 80.5297 208.329 80.5297 209.074V213H79.3467V205.876H80.5297V206.903C80.7637 206.53 81.0757 206.244 81.4657 206.045C81.8644 205.846 82.302 205.746 82.7787 205.746C83.3767 205.746 83.9054 205.88 84.3647 206.149C84.824 206.418 85.1664 206.812 85.3917 207.332C85.591 206.829 85.9204 206.439 86.3797 206.162C86.839 205.885 87.3504 205.746 87.9137 205.746ZM97.3891 207.189C97.6231 206.782 97.9697 206.444 98.4291 206.175C98.8971 205.898 99.4387 205.759 100.054 205.759C100.687 205.759 101.259 205.911 101.77 206.214C102.29 206.517 102.697 206.946 102.992 207.501C103.287 208.047 103.434 208.684 103.434 209.412C103.434 210.131 103.287 210.773 102.992 211.336C102.697 211.899 102.29 212.337 101.77 212.649C101.259 212.961 100.687 213.117 100.054 213.117C99.4474 213.117 98.9101 212.983 98.4421 212.714C97.9827 212.437 97.6317 212.094 97.3891 211.687V216.38H96.2061V205.876H97.3891V207.189ZM102.225 209.412C102.225 208.875 102.117 208.407 101.9 208.008C101.683 207.609 101.389 207.306 101.016 207.098C100.652 206.89 100.249 206.786 99.8071 206.786C99.3737 206.786 98.9707 206.894 98.5981 207.111C98.2341 207.319 97.9394 207.627 97.7141 208.034C97.4974 208.433 97.3891 208.896 97.3891 209.425C97.3891 209.962 97.4974 210.435 97.7141 210.842C97.9394 211.241 98.2341 211.548 98.5981 211.765C98.9707 211.973 99.3737 212.077 99.8071 212.077C100.249 212.077 100.652 211.973 101.016 211.765C101.389 211.548 101.683 211.241 101.9 210.842C102.117 210.435 102.225 209.958 102.225 209.412ZM108.527 205.746C109.065 205.746 109.55 205.863 109.983 206.097C110.417 206.322 110.755 206.665 110.997 207.124C111.249 207.583 111.374 208.142 111.374 208.801V213H110.204V208.97C110.204 208.259 110.027 207.718 109.671 207.345C109.316 206.964 108.831 206.773 108.215 206.773C107.591 206.773 107.093 206.968 106.72 207.358C106.356 207.748 106.174 208.316 106.174 209.061V213H104.991V203.38H106.174V206.89C106.408 206.526 106.729 206.244 107.136 206.045C107.552 205.846 108.016 205.746 108.527 205.746ZM112.865 209.412C112.865 208.684 113.012 208.047 113.307 207.501C113.601 206.946 114.004 206.517 114.516 206.214C115.036 205.911 115.612 205.759 116.245 205.759C116.869 205.759 117.41 205.893 117.87 206.162C118.329 206.431 118.671 206.769 118.897 207.176V205.876H120.093V213H118.897V211.674C118.663 212.09 118.312 212.437 117.844 212.714C117.384 212.983 116.847 213.117 116.232 213.117C115.599 213.117 115.027 212.961 114.516 212.649C114.004 212.337 113.601 211.899 113.307 211.336C113.012 210.773 112.865 210.131 112.865 209.412ZM118.897 209.425C118.897 208.888 118.788 208.42 118.572 208.021C118.355 207.622 118.06 207.319 117.688 207.111C117.324 206.894 116.921 206.786 116.479 206.786C116.037 206.786 115.634 206.89 115.27 207.098C114.906 207.306 114.615 207.609 114.399 208.008C114.182 208.407 114.074 208.875 114.074 209.412C114.074 209.958 114.182 210.435 114.399 210.842C114.615 211.241 114.906 211.548 115.27 211.765C115.634 211.973 116.037 212.077 116.479 212.077C116.921 212.077 117.324 211.973 117.688 211.765C118.06 211.548 118.355 211.241 118.572 210.842C118.788 210.435 118.897 209.962 118.897 209.425ZM124.614 213.117C124.068 213.117 123.578 213.026 123.145 212.844C122.711 212.653 122.369 212.393 122.118 212.064C121.866 211.726 121.728 211.34 121.702 210.907H122.924C122.958 211.262 123.123 211.553 123.418 211.778C123.721 212.003 124.115 212.116 124.601 212.116C125.051 212.116 125.407 212.016 125.667 211.817C125.927 211.618 126.057 211.366 126.057 211.063C126.057 210.751 125.918 210.521 125.641 210.374C125.363 210.218 124.934 210.066 124.354 209.919C123.825 209.78 123.392 209.642 123.054 209.503C122.724 209.356 122.438 209.143 122.196 208.866C121.962 208.58 121.845 208.207 121.845 207.748C121.845 207.384 121.953 207.05 122.17 206.747C122.386 206.444 122.694 206.205 123.093 206.032C123.491 205.85 123.946 205.759 124.458 205.759C125.246 205.759 125.883 205.958 126.369 206.357C126.854 206.756 127.114 207.302 127.149 207.995H125.966C125.94 207.622 125.788 207.323 125.511 207.098C125.242 206.873 124.878 206.76 124.419 206.76C123.994 206.76 123.656 206.851 123.405 207.033C123.153 207.215 123.028 207.453 123.028 207.748C123.028 207.982 123.101 208.177 123.249 208.333C123.405 208.48 123.595 208.602 123.821 208.697C124.055 208.784 124.375 208.883 124.783 208.996C125.294 209.135 125.71 209.273 126.031 209.412C126.351 209.542 126.624 209.741 126.85 210.01C127.084 210.279 127.205 210.63 127.214 211.063C127.214 211.453 127.105 211.804 126.889 212.116C126.672 212.428 126.364 212.675 125.966 212.857C125.576 213.03 125.125 213.117 124.614 213.117ZM135.384 209.165C135.384 209.39 135.371 209.629 135.345 209.88H129.651C129.694 210.582 129.932 211.132 130.366 211.531C130.808 211.921 131.341 212.116 131.965 212.116C132.476 212.116 132.901 211.999 133.239 211.765C133.585 211.522 133.828 211.202 133.967 210.803H135.241C135.05 211.488 134.669 212.047 134.097 212.48C133.525 212.905 132.814 213.117 131.965 213.117C131.289 213.117 130.682 212.965 130.145 212.662C129.616 212.359 129.2 211.93 128.897 211.375C128.593 210.812 128.442 210.162 128.442 209.425C128.442 208.688 128.589 208.043 128.884 207.488C129.178 206.933 129.59 206.509 130.119 206.214C130.656 205.911 131.271 205.759 131.965 205.759C132.641 205.759 133.239 205.906 133.759 206.201C134.279 206.496 134.677 206.903 134.955 207.423C135.241 207.934 135.384 208.515 135.384 209.165ZM134.162 208.918C134.162 208.467 134.062 208.082 133.863 207.761C133.663 207.432 133.39 207.185 133.044 207.02C132.706 206.847 132.329 206.76 131.913 206.76C131.315 206.76 130.803 206.951 130.379 207.332C129.963 207.713 129.724 208.242 129.664 208.918H134.162ZM138.128 203.38V213H136.945V203.38H138.128ZM141.328 203.38V213H140.145V203.38H141.328ZM149.662 205.876V213H148.479V211.947C148.253 212.311 147.937 212.597 147.53 212.805C147.131 213.004 146.689 213.104 146.204 213.104C145.649 213.104 145.151 212.991 144.709 212.766C144.267 212.532 143.916 212.185 143.656 211.726C143.404 211.267 143.279 210.708 143.279 210.049V205.876H144.449V209.893C144.449 210.595 144.626 211.137 144.982 211.518C145.337 211.891 145.822 212.077 146.438 212.077C147.07 212.077 147.569 211.882 147.933 211.492C148.297 211.102 148.479 210.534 148.479 209.789V205.876H149.662ZM154.181 213.117C153.635 213.117 153.146 213.026 152.712 212.844C152.279 212.653 151.937 212.393 151.685 212.064C151.434 211.726 151.295 211.34 151.269 210.907H152.491C152.526 211.262 152.691 211.553 152.985 211.778C153.289 212.003 153.683 212.116 154.168 212.116C154.619 212.116 154.974 212.016 155.234 211.817C155.494 211.618 155.624 211.366 155.624 211.063C155.624 210.751 155.486 210.521 155.208 210.374C154.931 210.218 154.502 210.066 153.921 209.919C153.393 209.78 152.959 209.642 152.621 209.503C152.292 209.356 152.006 209.143 151.763 208.866C151.529 208.58 151.412 208.207 151.412 207.748C151.412 207.384 151.521 207.05 151.737 206.747C151.954 206.444 152.262 206.205 152.66 206.032C153.059 205.85 153.514 205.759 154.025 205.759C154.814 205.759 155.451 205.958 155.936 206.357C156.422 206.756 156.682 207.302 156.716 207.995H155.533C155.507 207.622 155.356 207.323 155.078 207.098C154.81 206.873 154.446 206.76 153.986 206.76C153.562 206.76 153.224 206.851 152.972 207.033C152.721 207.215 152.595 207.453 152.595 207.748C152.595 207.982 152.669 208.177 152.816 208.333C152.972 208.48 153.163 208.602 153.388 208.697C153.622 208.784 153.943 208.883 154.35 208.996C154.862 209.135 155.278 209.273 155.598 209.412C155.919 209.542 156.192 209.741 156.417 210.01C156.651 210.279 156.773 210.63 156.781 211.063C156.781 211.453 156.673 211.804 156.456 212.116C156.24 212.428 155.932 212.675 155.533 212.857C155.143 213.03 154.693 213.117 154.181 213.117ZM168.417 209.165C168.417 209.39 168.404 209.629 168.378 209.88H162.684C162.727 210.582 162.966 211.132 163.399 211.531C163.841 211.921 164.374 212.116 164.998 212.116C165.509 212.116 165.934 211.999 166.272 211.765C166.619 211.522 166.861 211.202 167 210.803H168.274C168.083 211.488 167.702 212.047 167.13 212.48C166.558 212.905 165.847 213.117 164.998 213.117C164.322 213.117 163.715 212.965 163.178 212.662C162.649 212.359 162.233 211.93 161.93 211.375C161.627 210.812 161.475 210.162 161.475 209.425C161.475 208.688 161.622 208.043 161.917 207.488C162.212 206.933 162.623 206.509 163.152 206.214C163.689 205.911 164.305 205.759 164.998 205.759C165.674 205.759 166.272 205.906 166.792 206.201C167.312 206.496 167.711 206.903 167.988 207.423C168.274 207.934 168.417 208.515 168.417 209.165ZM167.195 208.918C167.195 208.467 167.095 208.082 166.896 207.761C166.697 207.432 166.424 207.185 166.077 207.02C165.739 206.847 165.362 206.76 164.946 206.76C164.348 206.76 163.837 206.951 163.412 207.332C162.996 207.713 162.758 208.242 162.697 208.918H167.195ZM176.297 205.876V213H175.114V211.947C174.888 212.311 174.572 212.597 174.165 212.805C173.766 213.004 173.324 213.104 172.839 213.104C172.284 213.104 171.786 212.991 171.344 212.766C170.902 212.532 170.551 212.185 170.291 211.726C170.039 211.267 169.914 210.708 169.914 210.049V205.876H171.084V209.893C171.084 210.595 171.261 211.137 171.617 211.518C171.972 211.891 172.457 212.077 173.073 212.077C173.705 212.077 174.204 211.882 174.568 211.492C174.932 211.102 175.114 210.534 175.114 209.789V205.876H176.297ZM181.318 209.412C181.318 208.684 181.465 208.047 181.76 207.501C182.054 206.946 182.457 206.517 182.969 206.214C183.489 205.911 184.069 205.759 184.711 205.759C185.265 205.759 185.781 205.889 186.258 206.149C186.734 206.4 187.098 206.734 187.35 207.15V203.38H188.546V213H187.35V211.661C187.116 212.086 186.769 212.437 186.31 212.714C185.85 212.983 185.313 213.117 184.698 213.117C184.065 213.117 183.489 212.961 182.969 212.649C182.457 212.337 182.054 211.899 181.76 211.336C181.465 210.773 181.318 210.131 181.318 209.412ZM187.35 209.425C187.35 208.888 187.241 208.42 187.025 208.021C186.808 207.622 186.513 207.319 186.141 207.111C185.777 206.894 185.374 206.786 184.932 206.786C184.49 206.786 184.087 206.89 183.723 207.098C183.359 207.306 183.068 207.609 182.852 208.008C182.635 208.407 182.527 208.875 182.527 209.412C182.527 209.958 182.635 210.435 182.852 210.842C183.068 211.241 183.359 211.548 183.723 211.765C184.087 211.973 184.49 212.077 184.932 212.077C185.374 212.077 185.777 211.973 186.141 211.765C186.513 211.548 186.808 211.241 187.025 210.842C187.241 210.435 187.35 209.962 187.35 209.425ZM191.156 204.719C190.931 204.719 190.74 204.641 190.584 204.485C190.428 204.329 190.35 204.138 190.35 203.913C190.35 203.688 190.428 203.497 190.584 203.341C190.74 203.185 190.931 203.107 191.156 203.107C191.373 203.107 191.555 203.185 191.702 203.341C191.858 203.497 191.936 203.688 191.936 203.913C191.936 204.138 191.858 204.329 191.702 204.485C191.555 204.641 191.373 204.719 191.156 204.719ZM191.728 205.876V213H190.545V205.876H191.728ZM193.302 209.412C193.302 208.684 193.449 208.047 193.744 207.501C194.039 206.946 194.442 206.517 194.953 206.214C195.473 205.911 196.049 205.759 196.682 205.759C197.306 205.759 197.848 205.893 198.307 206.162C198.766 206.431 199.109 206.769 199.334 207.176V205.876H200.53V213H199.334V211.674C199.1 212.09 198.749 212.437 198.281 212.714C197.822 212.983 197.284 213.117 196.669 213.117C196.036 213.117 195.464 212.961 194.953 212.649C194.442 212.337 194.039 211.899 193.744 211.336C193.449 210.773 193.302 210.131 193.302 209.412ZM199.334 209.425C199.334 208.888 199.226 208.42 199.009 208.021C198.792 207.622 198.498 207.319 198.125 207.111C197.761 206.894 197.358 206.786 196.916 206.786C196.474 206.786 196.071 206.89 195.707 207.098C195.343 207.306 195.053 207.609 194.836 208.008C194.619 208.407 194.511 208.875 194.511 209.412C194.511 209.958 194.619 210.435 194.836 210.842C195.053 211.241 195.343 211.548 195.707 211.765C196.071 211.973 196.474 212.077 196.916 212.077C197.358 212.077 197.761 211.973 198.125 211.765C198.498 211.548 198.792 211.241 199.009 210.842C199.226 210.435 199.334 209.962 199.334 209.425ZM211.096 205.746C211.651 205.746 212.145 205.863 212.578 206.097C213.012 206.322 213.354 206.665 213.605 207.124C213.857 207.583 213.982 208.142 213.982 208.801V213H212.812V208.97C212.812 208.259 212.635 207.718 212.279 207.345C211.933 206.964 211.46 206.773 210.862 206.773C210.247 206.773 209.757 206.972 209.393 207.371C209.029 207.761 208.847 208.329 208.847 209.074V213H207.677V208.97C207.677 208.259 207.5 207.718 207.144 207.345C206.798 206.964 206.325 206.773 205.727 206.773C205.112 206.773 204.622 206.972 204.258 207.371C203.894 207.761 203.712 208.329 203.712 209.074V213H202.529V205.876H203.712V206.903C203.946 206.53 204.258 206.244 204.648 206.045C205.047 205.846 205.485 205.746 205.961 205.746C206.559 205.746 207.088 205.88 207.547 206.149C208.007 206.418 208.349 206.812 208.574 207.332C208.774 206.829 209.103 206.439 209.562 206.162C210.022 205.885 210.533 205.746 211.096 205.746Z" fill="black"/>
<line y1="310.5" x2="29" y2="310.5" stroke="black" stroke-width="3"/>
<path d="M59.704 294.832V296.64H56.728V306H54.488V296.64H51.512V294.832H59.704ZM62.4744 296.08C62.0797 296.08 61.749 295.957 61.4824 295.712C61.2264 295.456 61.0984 295.141 61.0984 294.768C61.0984 294.395 61.2264 294.085 61.4824 293.84C61.749 293.584 62.0797 293.456 62.4744 293.456C62.869 293.456 63.1944 293.584 63.4504 293.84C63.717 294.085 63.8504 294.395 63.8504 294.768C63.8504 295.141 63.717 295.456 63.4504 295.712C63.1944 295.957 62.869 296.08 62.4744 296.08ZM63.5784 297.136V306H61.3384V297.136H63.5784ZM70.7035 297.008C71.7595 297.008 72.6128 297.344 73.2635 298.016C73.9142 298.677 74.2395 299.605 74.2395 300.8V306H71.9995V301.104C71.9995 300.4 71.8235 299.861 71.4715 299.488C71.1195 299.104 70.6395 298.912 70.0315 298.912C69.4128 298.912 68.9222 299.104 68.5595 299.488C68.2075 299.861 68.0315 300.4 68.0315 301.104V306H65.7915V297.136H68.0315V298.24C68.3302 297.856 68.7088 297.557 69.1675 297.344C69.6368 297.12 70.1488 297.008 70.7035 297.008ZM75.7936 301.568C75.7936 300.651 75.9803 299.851 76.3536 299.168C76.727 298.475 77.2443 297.941 77.9056 297.568C78.567 297.184 79.3243 296.992 80.1776 296.992C81.2763 296.992 82.183 297.269 82.8976 297.824C83.623 298.368 84.1083 299.136 84.3536 300.128H81.9376C81.8096 299.744 81.591 299.445 81.2816 299.232C80.983 299.008 80.6096 298.896 80.1616 298.896C79.5216 298.896 79.015 299.131 78.6416 299.6C78.2683 300.059 78.0816 300.715 78.0816 301.568C78.0816 302.411 78.2683 303.067 78.6416 303.536C79.015 303.995 79.5216 304.224 80.1616 304.224C81.0683 304.224 81.6603 303.819 81.9376 303.008H84.3536C84.1083 303.968 83.623 304.731 82.8976 305.296C82.1723 305.861 81.2656 306.144 80.1776 306.144C79.3243 306.144 78.567 305.957 77.9056 305.584C77.2443 305.2 76.727 304.667 76.3536 303.984C75.9803 303.291 75.7936 302.485 75.7936 301.568ZM87.1306 296.08C86.736 296.08 86.4053 295.957 86.1386 295.712C85.8826 295.456 85.7546 295.141 85.7546 294.768C85.7546 294.395 85.8826 294.085 86.1386 293.84C86.4053 293.584 86.736 293.456 87.1306 293.456C87.5253 293.456 87.8506 293.584 88.1066 293.84C88.3733 294.085 88.5066 294.395 88.5066 294.768C88.5066 295.141 88.3733 295.456 88.1066 295.712C87.8506 295.957 87.5253 296.08 87.1306 296.08ZM88.2346 297.136V306H85.9946V297.136H88.2346ZM89.8717 301.536C89.8717 300.64 90.0477 299.845 90.3997 299.152C90.7624 298.459 91.2531 297.925 91.8718 297.552C92.4904 297.179 93.1784 296.992 93.9358 296.992C94.5118 296.992 95.0611 297.12 95.5838 297.376C96.1064 297.621 96.5224 297.952 96.8318 298.368V294.16H99.1038V306H96.8318V304.688C96.5544 305.125 96.1651 305.477 95.6638 305.744C95.1624 306.011 94.5811 306.144 93.9198 306.144C93.1731 306.144 92.4904 305.952 91.8718 305.568C91.2531 305.184 90.7624 304.645 90.3997 303.952C90.0477 303.248 89.8717 302.443 89.8717 301.536ZM96.8478 301.568C96.8478 301.024 96.7411 300.56 96.5278 300.176C96.3144 299.781 96.0264 299.483 95.6638 299.28C95.3011 299.067 94.9118 298.96 94.4958 298.96C94.0798 298.96 93.6958 299.061 93.3438 299.264C92.9918 299.467 92.7038 299.765 92.4798 300.16C92.2664 300.544 92.1598 301.003 92.1598 301.536C92.1598 302.069 92.2664 302.539 92.4798 302.944C92.7038 303.339 92.9918 303.643 93.3438 303.856C93.7064 304.069 94.0904 304.176 94.4958 304.176C94.9118 304.176 95.3011 304.075 95.6638 303.872C96.0264 303.659 96.3144 303.36 96.5278 302.976C96.7411 302.581 96.8478 302.112 96.8478 301.568ZM109.66 297.136V306H107.404V304.88C107.116 305.264 106.737 305.568 106.268 305.792C105.809 306.005 105.308 306.112 104.764 306.112C104.07 306.112 103.457 305.968 102.924 305.68C102.39 305.381 101.969 304.949 101.66 304.384C101.361 303.808 101.212 303.125 101.212 302.336V297.136H103.452V302.016C103.452 302.72 103.628 303.264 103.98 303.648C104.332 304.021 104.812 304.208 105.42 304.208C106.038 304.208 106.524 304.021 106.876 303.648C107.228 303.264 107.404 302.72 107.404 302.016V297.136H109.66ZM116.782 297.008C117.838 297.008 118.691 297.344 119.342 298.016C119.992 298.677 120.318 299.605 120.318 300.8V306H118.078V301.104C118.078 300.4 117.902 299.861 117.55 299.488C117.198 299.104 116.718 298.912 116.11 298.912C115.491 298.912 115 299.104 114.638 299.488C114.286 299.861 114.11 300.4 114.11 301.104V306H111.87V297.136H114.11V298.24C114.408 297.856 114.787 297.557 115.246 297.344C115.715 297.12 116.227 297.008 116.782 297.008ZM125.056 298.976V303.264C125.056 303.563 125.125 303.781 125.264 303.92C125.413 304.048 125.658 304.112 126 304.112H127.04V306H125.632C123.744 306 122.8 305.083 122.8 303.248V298.976H121.744V297.136H122.8V294.944H125.056V297.136H127.04V298.976H125.056ZM131.887 301.568C131.887 300.651 132.074 299.851 132.447 299.168C132.821 298.475 133.338 297.941 133.999 297.568C134.661 297.184 135.418 296.992 136.271 296.992C137.37 296.992 138.277 297.269 138.991 297.824C139.717 298.368 140.202 299.136 140.447 300.128H138.031C137.903 299.744 137.685 299.445 137.375 299.232C137.077 299.008 136.703 298.896 136.255 298.896C135.615 298.896 135.109 299.131 134.735 299.6C134.362 300.059 134.175 300.715 134.175 301.568C134.175 302.411 134.362 303.067 134.735 303.536C135.109 303.995 135.615 304.224 136.255 304.224C137.162 304.224 137.754 303.819 138.031 303.008H140.447C140.202 303.968 139.717 304.731 138.991 305.296C138.266 305.861 137.359 306.144 136.271 306.144C135.418 306.144 134.661 305.957 133.999 305.584C133.338 305.2 132.821 304.667 132.447 303.984C132.074 303.291 131.887 302.485 131.887 301.568ZM146.024 306.144C145.171 306.144 144.403 305.957 143.72 305.584C143.038 305.2 142.499 304.661 142.104 303.968C141.72 303.275 141.528 302.475 141.528 301.568C141.528 300.661 141.726 299.861 142.12 299.168C142.526 298.475 143.075 297.941 143.768 297.568C144.462 297.184 145.235 296.992 146.088 296.992C146.942 296.992 147.715 297.184 148.408 297.568C149.102 297.941 149.646 298.475 150.04 299.168C150.446 299.861 150.648 300.661 150.648 301.568C150.648 302.475 150.44 303.275 150.024 303.968C149.619 304.661 149.064 305.2 148.36 305.584C147.667 305.957 146.888 306.144 146.024 306.144ZM146.024 304.192C146.43 304.192 146.808 304.096 147.16 303.904C147.523 303.701 147.811 303.403 148.024 303.008C148.238 302.613 148.344 302.133 148.344 301.568C148.344 300.725 148.12 300.08 147.672 299.632C147.235 299.173 146.696 298.944 146.056 298.944C145.416 298.944 144.878 299.173 144.44 299.632C144.014 300.08 143.8 300.725 143.8 301.568C143.8 302.411 144.008 303.061 144.424 303.52C144.851 303.968 145.384 304.192 146.024 304.192ZM157.204 297.008C158.26 297.008 159.113 297.344 159.764 298.016C160.414 298.677 160.74 299.605 160.74 300.8V306H158.5V301.104C158.5 300.4 158.324 299.861 157.972 299.488C157.62 299.104 157.14 298.912 156.532 298.912C155.913 298.912 155.422 299.104 155.06 299.488C154.708 299.861 154.532 300.4 154.532 301.104V306H152.292V297.136H154.532V298.24C154.83 297.856 155.209 297.557 155.668 297.344C156.137 297.12 156.649 297.008 157.204 297.008ZM166.262 306.144C165.536 306.144 164.886 306.016 164.31 305.76C163.734 305.493 163.275 305.136 162.934 304.688C162.603 304.24 162.422 303.744 162.39 303.2H164.646C164.688 303.541 164.854 303.824 165.142 304.048C165.44 304.272 165.808 304.384 166.246 304.384C166.672 304.384 167.003 304.299 167.238 304.128C167.483 303.957 167.606 303.739 167.606 303.472C167.606 303.184 167.456 302.971 167.158 302.832C166.87 302.683 166.406 302.523 165.766 302.352C165.104 302.192 164.56 302.027 164.134 301.856C163.718 301.685 163.355 301.424 163.046 301.072C162.747 300.72 162.598 300.245 162.598 299.648C162.598 299.157 162.736 298.709 163.014 298.304C163.302 297.899 163.707 297.579 164.23 297.344C164.763 297.109 165.387 296.992 166.102 296.992C167.158 296.992 168 297.259 168.63 297.792C169.259 298.315 169.606 299.024 169.67 299.92H167.526C167.494 299.568 167.344 299.291 167.078 299.088C166.822 298.875 166.475 298.768 166.038 298.768C165.632 298.768 165.318 298.843 165.094 298.992C164.88 299.141 164.774 299.349 164.774 299.616C164.774 299.915 164.923 300.144 165.222 300.304C165.52 300.453 165.984 300.608 166.614 300.768C167.254 300.928 167.782 301.093 168.198 301.264C168.614 301.435 168.971 301.701 169.27 302.064C169.579 302.416 169.739 302.885 169.75 303.472C169.75 303.984 169.606 304.443 169.318 304.848C169.04 305.253 168.635 305.573 168.102 305.808C167.579 306.032 166.966 306.144 166.262 306.144ZM179.828 301.376C179.828 301.696 179.807 301.984 179.764 302.24H173.284C173.338 302.88 173.562 303.381 173.956 303.744C174.351 304.107 174.836 304.288 175.412 304.288C176.244 304.288 176.836 303.931 177.188 303.216H179.604C179.348 304.069 178.858 304.773 178.132 305.328C177.407 305.872 176.516 306.144 175.46 306.144C174.607 306.144 173.839 305.957 173.156 305.584C172.484 305.2 171.956 304.661 171.572 303.968C171.199 303.275 171.012 302.475 171.012 301.568C171.012 300.651 171.199 299.845 171.572 299.152C171.946 298.459 172.468 297.925 173.14 297.552C173.812 297.179 174.586 296.992 175.46 296.992C176.303 296.992 177.055 297.173 177.716 297.536C178.388 297.899 178.906 298.416 179.268 299.088C179.642 299.749 179.828 300.512 179.828 301.376ZM177.508 300.736C177.498 300.16 177.29 299.701 176.884 299.36C176.479 299.008 175.983 298.832 175.396 298.832C174.842 298.832 174.372 299.003 173.988 299.344C173.615 299.675 173.386 300.139 173.3 300.736H177.508ZM180.887 301.552C180.887 300.667 181.069 299.883 181.431 299.2C181.805 298.507 182.306 297.968 182.935 297.584C183.565 297.2 184.258 297.008 185.015 297.008C185.645 297.008 186.199 297.131 186.679 297.376C187.17 297.611 187.565 297.915 187.863 298.288V297.136H190.119V310.224H187.863V304.784C187.565 305.168 187.165 305.488 186.663 305.744C186.162 306 185.597 306.128 184.967 306.128C184.221 306.128 183.533 305.936 182.903 305.552C182.285 305.157 181.794 304.613 181.431 303.92C181.069 303.227 180.887 302.437 180.887 301.552ZM187.863 301.568C187.863 301.024 187.751 300.555 187.527 300.16C187.303 299.765 187.01 299.467 186.647 299.264C186.295 299.061 185.917 298.96 185.511 298.96C185.117 298.96 184.738 299.061 184.375 299.264C184.023 299.467 183.735 299.765 183.511 300.16C183.287 300.544 183.175 301.008 183.175 301.552C183.175 302.096 183.287 302.571 183.511 302.976C183.735 303.371 184.023 303.669 184.375 303.872C184.738 304.075 185.117 304.176 185.511 304.176C185.917 304.176 186.295 304.075 186.647 303.872C187.01 303.669 187.303 303.371 187.527 302.976C187.751 302.581 187.863 302.112 187.863 301.568ZM200.675 297.136V306H198.419V304.88C198.131 305.264 197.752 305.568 197.283 305.792C196.824 306.005 196.323 306.112 195.779 306.112C195.086 306.112 194.472 305.968 193.939 305.68C193.406 305.381 192.984 304.949 192.675 304.384C192.376 303.808 192.227 303.125 192.227 302.336V297.136H194.467V302.016C194.467 302.72 194.643 303.264 194.995 303.648C195.347 304.021 195.827 304.208 196.435 304.208C197.054 304.208 197.539 304.021 197.891 303.648C198.243 303.264 198.419 302.72 198.419 302.016V297.136H200.675ZM202.309 301.536C202.309 300.64 202.485 299.845 202.837 299.152C203.2 298.459 203.685 297.925 204.293 297.552C204.912 297.179 205.6 296.992 206.357 296.992C207.019 296.992 207.595 297.125 208.085 297.392C208.587 297.659 208.987 297.995 209.285 298.4V297.136H211.541V306H209.285V304.704C208.997 305.12 208.597 305.467 208.085 305.744C207.584 306.011 207.003 306.144 206.341 306.144C205.595 306.144 204.912 305.952 204.293 305.568C203.685 305.184 203.2 304.645 202.837 303.952C202.485 303.248 202.309 302.443 202.309 301.536ZM209.285 301.568C209.285 301.024 209.179 300.56 208.965 300.176C208.752 299.781 208.464 299.483 208.101 299.28C207.739 299.067 207.349 298.96 206.933 298.96C206.517 298.96 206.133 299.061 205.781 299.264C205.429 299.467 205.141 299.765 204.917 300.16C204.704 300.544 204.597 301.003 204.597 301.536C204.597 302.069 204.704 302.539 204.917 302.944C205.141 303.339 205.429 303.643 205.781 303.856C206.144 304.069 206.528 304.176 206.933 304.176C207.349 304.176 207.739 304.075 208.101 303.872C208.464 303.659 208.752 303.36 208.965 302.976C209.179 302.581 209.285 302.112 209.285 301.568ZM216.337 298.976V303.264C216.337 303.563 216.406 303.781 216.545 303.92C216.694 304.048 216.94 304.112 217.281 304.112H218.321V306H216.913C215.025 306 214.081 305.083 214.081 303.248V298.976H213.025V297.136H214.081V294.944H216.337V297.136H218.321V298.976H216.337Z" fill="black"/>
<path d="M59.268 333.716L57.461 331.909C57.019 332.03 56.5683 332.091 56.109 332.091C55.2683 332.091 54.5013 331.896 53.808 331.506C53.1147 331.107 52.5643 330.557 52.157 329.855C51.7583 329.144 51.559 328.347 51.559 327.463C51.559 326.579 51.7583 325.786 52.157 325.084C52.5643 324.373 53.1147 323.823 53.808 323.433C54.5013 323.034 55.2683 322.835 56.109 322.835C56.9583 322.835 57.7297 323.034 58.423 323.433C59.1163 323.823 59.6623 324.369 60.061 325.071C60.4597 325.773 60.659 326.57 60.659 327.463C60.659 328.33 60.4683 329.11 60.087 329.803C59.7057 330.496 59.1813 331.042 58.514 331.441L60.802 333.716H59.268ZM52.768 327.463C52.768 328.182 52.911 328.815 53.197 329.361C53.4917 329.907 53.8903 330.327 54.393 330.622C54.9043 330.917 55.4763 331.064 56.109 331.064C56.7417 331.064 57.3093 330.917 57.812 330.622C58.3233 330.327 58.722 329.907 59.008 329.361C59.3027 328.815 59.45 328.182 59.45 327.463C59.45 326.735 59.3027 326.102 59.008 325.565C58.722 325.019 58.3277 324.599 57.825 324.304C57.3223 324.009 56.7503 323.862 56.109 323.862C55.4677 323.862 54.8957 324.009 54.393 324.304C53.8903 324.599 53.4917 325.019 53.197 325.565C52.911 326.102 52.768 326.735 52.768 327.463ZM68.5641 324.876V332H67.3811V330.947C67.1558 331.311 66.8395 331.597 66.4321 331.805C66.0335 332.004 65.5915 332.104 65.1061 332.104C64.5515 332.104 64.0531 331.991 63.6111 331.766C63.1691 331.532 62.8181 331.185 62.5581 330.726C62.3068 330.267 62.1811 329.708 62.1811 329.049V324.876H63.3511V328.893C63.3511 329.595 63.5288 330.137 63.8841 330.518C64.2395 330.891 64.7248 331.077 65.3401 331.077C65.9728 331.077 66.4711 330.882 66.8351 330.492C67.1991 330.102 67.3811 329.534 67.3811 328.789V324.876H68.5641ZM70.1195 328.412C70.1195 327.684 70.2669 327.047 70.5615 326.501C70.8562 325.946 71.2592 325.517 71.7705 325.214C72.2905 324.911 72.8669 324.759 73.4995 324.759C74.1235 324.759 74.6652 324.893 75.1245 325.162C75.5839 325.431 75.9262 325.769 76.1515 326.176V324.876H77.3475V332H76.1515V330.674C75.9175 331.09 75.5665 331.437 75.0985 331.714C74.6392 331.983 74.1019 332.117 73.4865 332.117C72.8539 332.117 72.2819 331.961 71.7705 331.649C71.2592 331.337 70.8562 330.899 70.5615 330.336C70.2669 329.773 70.1195 329.131 70.1195 328.412ZM76.1515 328.425C76.1515 327.888 76.0432 327.42 75.8265 327.021C75.6099 326.622 75.3152 326.319 74.9425 326.111C74.5785 325.894 74.1755 325.786 73.7335 325.786C73.2915 325.786 72.8885 325.89 72.5245 326.098C72.1605 326.306 71.8702 326.609 71.6535 327.008C71.4369 327.407 71.3285 327.875 71.3285 328.412C71.3285 328.958 71.4369 329.435 71.6535 329.842C71.8702 330.241 72.1605 330.548 72.5245 330.765C72.8885 330.973 73.2915 331.077 73.7335 331.077C74.1755 331.077 74.5785 330.973 74.9425 330.765C75.3152 330.548 75.6099 330.241 75.8265 329.842C76.0432 329.435 76.1515 328.962 76.1515 328.425ZM87.9137 324.746C88.4684 324.746 88.9624 324.863 89.3957 325.097C89.829 325.322 90.1714 325.665 90.4227 326.124C90.674 326.583 90.7997 327.142 90.7997 327.801V332H89.6297V327.97C89.6297 327.259 89.452 326.718 89.0967 326.345C88.75 325.964 88.2777 325.773 87.6797 325.773C87.0644 325.773 86.5747 325.972 86.2107 326.371C85.8467 326.761 85.6647 327.329 85.6647 328.074V332H84.4947V327.97C84.4947 327.259 84.317 326.718 83.9617 326.345C83.615 325.964 83.1427 325.773 82.5447 325.773C81.9294 325.773 81.4397 325.972 81.0757 326.371C80.7117 326.761 80.5297 327.329 80.5297 328.074V332H79.3467V324.876H80.5297V325.903C80.7637 325.53 81.0757 325.244 81.4657 325.045C81.8644 324.846 82.302 324.746 82.7787 324.746C83.3767 324.746 83.9054 324.88 84.3647 325.149C84.824 325.418 85.1664 325.812 85.3917 326.332C85.591 325.829 85.9204 325.439 86.3797 325.162C86.839 324.885 87.3504 324.746 87.9137 324.746ZM97.3891 326.189C97.6231 325.782 97.9697 325.444 98.4291 325.175C98.8971 324.898 99.4387 324.759 100.054 324.759C100.687 324.759 101.259 324.911 101.77 325.214C102.29 325.517 102.697 325.946 102.992 326.501C103.287 327.047 103.434 327.684 103.434 328.412C103.434 329.131 103.287 329.773 102.992 330.336C102.697 330.899 102.29 331.337 101.77 331.649C101.259 331.961 100.687 332.117 100.054 332.117C99.4474 332.117 98.9101 331.983 98.4421 331.714C97.9827 331.437 97.6317 331.094 97.3891 330.687V335.38H96.2061V324.876H97.3891V326.189ZM102.225 328.412C102.225 327.875 102.117 327.407 101.9 327.008C101.683 326.609 101.389 326.306 101.016 326.098C100.652 325.89 100.249 325.786 99.8071 325.786C99.3737 325.786 98.9707 325.894 98.5981 326.111C98.2341 326.319 97.9394 326.627 97.7141 327.034C97.4974 327.433 97.3891 327.896 97.3891 328.425C97.3891 328.962 97.4974 329.435 97.7141 329.842C97.9394 330.241 98.2341 330.548 98.5981 330.765C98.9707 330.973 99.3737 331.077 99.8071 331.077C100.249 331.077 100.652 330.973 101.016 330.765C101.389 330.548 101.683 330.241 101.9 329.842C102.117 329.435 102.225 328.958 102.225 328.412ZM108.527 324.746C109.065 324.746 109.55 324.863 109.983 325.097C110.417 325.322 110.755 325.665 110.997 326.124C111.249 326.583 111.374 327.142 111.374 327.801V332H110.204V327.97C110.204 327.259 110.027 326.718 109.671 326.345C109.316 325.964 108.831 325.773 108.215 325.773C107.591 325.773 107.093 325.968 106.72 326.358C106.356 326.748 106.174 327.316 106.174 328.061V332H104.991V322.38H106.174V325.89C106.408 325.526 106.729 325.244 107.136 325.045C107.552 324.846 108.016 324.746 108.527 324.746ZM112.865 328.412C112.865 327.684 113.012 327.047 113.307 326.501C113.601 325.946 114.004 325.517 114.516 325.214C115.036 324.911 115.612 324.759 116.245 324.759C116.869 324.759 117.41 324.893 117.87 325.162C118.329 325.431 118.671 325.769 118.897 326.176V324.876H120.093V332H118.897V330.674C118.663 331.09 118.312 331.437 117.844 331.714C117.384 331.983 116.847 332.117 116.232 332.117C115.599 332.117 115.027 331.961 114.516 331.649C114.004 331.337 113.601 330.899 113.307 330.336C113.012 329.773 112.865 329.131 112.865 328.412ZM118.897 328.425C118.897 327.888 118.788 327.42 118.572 327.021C118.355 326.622 118.06 326.319 117.688 326.111C117.324 325.894 116.921 325.786 116.479 325.786C116.037 325.786 115.634 325.89 115.27 326.098C114.906 326.306 114.615 326.609 114.399 327.008C114.182 327.407 114.074 327.875 114.074 328.412C114.074 328.958 114.182 329.435 114.399 329.842C114.615 330.241 114.906 330.548 115.27 330.765C115.634 330.973 116.037 331.077 116.479 331.077C116.921 331.077 117.324 330.973 117.688 330.765C118.06 330.548 118.355 330.241 118.572 329.842C118.788 329.435 118.897 328.962 118.897 328.425ZM124.614 332.117C124.068 332.117 123.578 332.026 123.145 331.844C122.711 331.653 122.369 331.393 122.118 331.064C121.866 330.726 121.728 330.34 121.702 329.907H122.924C122.958 330.262 123.123 330.553 123.418 330.778C123.721 331.003 124.115 331.116 124.601 331.116C125.051 331.116 125.407 331.016 125.667 330.817C125.927 330.618 126.057 330.366 126.057 330.063C126.057 329.751 125.918 329.521 125.641 329.374C125.363 329.218 124.934 329.066 124.354 328.919C123.825 328.78 123.392 328.642 123.054 328.503C122.724 328.356 122.438 328.143 122.196 327.866C121.962 327.58 121.845 327.207 121.845 326.748C121.845 326.384 121.953 326.05 122.17 325.747C122.386 325.444 122.694 325.205 123.093 325.032C123.491 324.85 123.946 324.759 124.458 324.759C125.246 324.759 125.883 324.958 126.369 325.357C126.854 325.756 127.114 326.302 127.149 326.995H125.966C125.94 326.622 125.788 326.323 125.511 326.098C125.242 325.873 124.878 325.76 124.419 325.76C123.994 325.76 123.656 325.851 123.405 326.033C123.153 326.215 123.028 326.453 123.028 326.748C123.028 326.982 123.101 327.177 123.249 327.333C123.405 327.48 123.595 327.602 123.821 327.697C124.055 327.784 124.375 327.883 124.783 327.996C125.294 328.135 125.71 328.273 126.031 328.412C126.351 328.542 126.624 328.741 126.85 329.01C127.084 329.279 127.205 329.63 127.214 330.063C127.214 330.453 127.105 330.804 126.889 331.116C126.672 331.428 126.364 331.675 125.966 331.857C125.576 332.03 125.125 332.117 124.614 332.117ZM135.384 328.165C135.384 328.39 135.371 328.629 135.345 328.88H129.651C129.694 329.582 129.932 330.132 130.366 330.531C130.808 330.921 131.341 331.116 131.965 331.116C132.476 331.116 132.901 330.999 133.239 330.765C133.585 330.522 133.828 330.202 133.967 329.803H135.241C135.05 330.488 134.669 331.047 134.097 331.48C133.525 331.905 132.814 332.117 131.965 332.117C131.289 332.117 130.682 331.965 130.145 331.662C129.616 331.359 129.2 330.93 128.897 330.375C128.593 329.812 128.442 329.162 128.442 328.425C128.442 327.688 128.589 327.043 128.884 326.488C129.178 325.933 129.59 325.509 130.119 325.214C130.656 324.911 131.271 324.759 131.965 324.759C132.641 324.759 133.239 324.906 133.759 325.201C134.279 325.496 134.677 325.903 134.955 326.423C135.241 326.934 135.384 327.515 135.384 328.165ZM134.162 327.918C134.162 327.467 134.062 327.082 133.863 326.761C133.663 326.432 133.39 326.185 133.044 326.02C132.706 325.847 132.329 325.76 131.913 325.76C131.315 325.76 130.803 325.951 130.379 326.332C129.963 326.713 129.724 327.242 129.664 327.918H134.162ZM138.128 322.38V332H136.945V322.38H138.128ZM141.328 322.38V332H140.145V322.38H141.328ZM149.662 324.876V332H148.479V330.947C148.253 331.311 147.937 331.597 147.53 331.805C147.131 332.004 146.689 332.104 146.204 332.104C145.649 332.104 145.151 331.991 144.709 331.766C144.267 331.532 143.916 331.185 143.656 330.726C143.404 330.267 143.279 329.708 143.279 329.049V324.876H144.449V328.893C144.449 329.595 144.626 330.137 144.982 330.518C145.337 330.891 145.822 331.077 146.438 331.077C147.07 331.077 147.569 330.882 147.933 330.492C148.297 330.102 148.479 329.534 148.479 328.789V324.876H149.662ZM154.181 332.117C153.635 332.117 153.146 332.026 152.712 331.844C152.279 331.653 151.937 331.393 151.685 331.064C151.434 330.726 151.295 330.34 151.269 329.907H152.491C152.526 330.262 152.691 330.553 152.985 330.778C153.289 331.003 153.683 331.116 154.168 331.116C154.619 331.116 154.974 331.016 155.234 330.817C155.494 330.618 155.624 330.366 155.624 330.063C155.624 329.751 155.486 329.521 155.208 329.374C154.931 329.218 154.502 329.066 153.921 328.919C153.393 328.78 152.959 328.642 152.621 328.503C152.292 328.356 152.006 328.143 151.763 327.866C151.529 327.58 151.412 327.207 151.412 326.748C151.412 326.384 151.521 326.05 151.737 325.747C151.954 325.444 152.262 325.205 152.66 325.032C153.059 324.85 153.514 324.759 154.025 324.759C154.814 324.759 155.451 324.958 155.936 325.357C156.422 325.756 156.682 326.302 156.716 326.995H155.533C155.507 326.622 155.356 326.323 155.078 326.098C154.81 325.873 154.446 325.76 153.986 325.76C153.562 325.76 153.224 325.851 152.972 326.033C152.721 326.215 152.595 326.453 152.595 326.748C152.595 326.982 152.669 327.177 152.816 327.333C152.972 327.48 153.163 327.602 153.388 327.697C153.622 327.784 153.943 327.883 154.35 327.996C154.862 328.135 155.278 328.273 155.598 328.412C155.919 328.542 156.192 328.741 156.417 329.01C156.651 329.279 156.773 329.63 156.781 330.063C156.781 330.453 156.673 330.804 156.456 331.116C156.24 331.428 155.932 331.675 155.533 331.857C155.143 332.03 154.693 332.117 154.181 332.117ZM168.417 328.165C168.417 328.39 168.404 328.629 168.378 328.88H162.684C162.727 329.582 162.966 330.132 163.399 330.531C163.841 330.921 164.374 331.116 164.998 331.116C165.509 331.116 165.934 330.999 166.272 330.765C166.619 330.522 166.861 330.202 167 329.803H168.274C168.083 330.488 167.702 331.047 167.13 331.48C166.558 331.905 165.847 332.117 164.998 332.117C164.322 332.117 163.715 331.965 163.178 331.662C162.649 331.359 162.233 330.93 161.93 330.375C161.627 329.812 161.475 329.162 161.475 328.425C161.475 327.688 161.622 327.043 161.917 326.488C162.212 325.933 162.623 325.509 163.152 325.214C163.689 324.911 164.305 324.759 164.998 324.759C165.674 324.759 166.272 324.906 166.792 325.201C167.312 325.496 167.711 325.903 167.988 326.423C168.274 326.934 168.417 327.515 168.417 328.165ZM167.195 327.918C167.195 327.467 167.095 327.082 166.896 326.761C166.697 326.432 166.424 326.185 166.077 326.02C165.739 325.847 165.362 325.76 164.946 325.76C164.348 325.76 163.837 325.951 163.412 326.332C162.996 326.713 162.758 327.242 162.697 327.918H167.195ZM176.297 324.876V332H175.114V330.947C174.888 331.311 174.572 331.597 174.165 331.805C173.766 332.004 173.324 332.104 172.839 332.104C172.284 332.104 171.786 331.991 171.344 331.766C170.902 331.532 170.551 331.185 170.291 330.726C170.039 330.267 169.914 329.708 169.914 329.049V324.876H171.084V328.893C171.084 329.595 171.261 330.137 171.617 330.518C171.972 330.891 172.457 331.077 173.073 331.077C173.705 331.077 174.204 330.882 174.568 330.492C174.932 330.102 175.114 329.534 175.114 328.789V324.876H176.297ZM181.318 328.412C181.318 327.684 181.465 327.047 181.76 326.501C182.054 325.946 182.457 325.517 182.969 325.214C183.489 324.911 184.069 324.759 184.711 324.759C185.265 324.759 185.781 324.889 186.258 325.149C186.734 325.4 187.098 325.734 187.35 326.15V322.38H188.546V332H187.35V330.661C187.116 331.086 186.769 331.437 186.31 331.714C185.85 331.983 185.313 332.117 184.698 332.117C184.065 332.117 183.489 331.961 182.969 331.649C182.457 331.337 182.054 330.899 181.76 330.336C181.465 329.773 181.318 329.131 181.318 328.412ZM187.35 328.425C187.35 327.888 187.241 327.42 187.025 327.021C186.808 326.622 186.513 326.319 186.141 326.111C185.777 325.894 185.374 325.786 184.932 325.786C184.49 325.786 184.087 325.89 183.723 326.098C183.359 326.306 183.068 326.609 182.852 327.008C182.635 327.407 182.527 327.875 182.527 328.412C182.527 328.958 182.635 329.435 182.852 329.842C183.068 330.241 183.359 330.548 183.723 330.765C184.087 330.973 184.49 331.077 184.932 331.077C185.374 331.077 185.777 330.973 186.141 330.765C186.513 330.548 186.808 330.241 187.025 329.842C187.241 329.435 187.35 328.962 187.35 328.425ZM191.156 323.719C190.931 323.719 190.74 323.641 190.584 323.485C190.428 323.329 190.35 323.138 190.35 322.913C190.35 322.688 190.428 322.497 190.584 322.341C190.74 322.185 190.931 322.107 191.156 322.107C191.373 322.107 191.555 322.185 191.702 322.341C191.858 322.497 191.936 322.688 191.936 322.913C191.936 323.138 191.858 323.329 191.702 323.485C191.555 323.641 191.373 323.719 191.156 323.719ZM191.728 324.876V332H190.545V324.876H191.728ZM193.302 328.412C193.302 327.684 193.449 327.047 193.744 326.501C194.039 325.946 194.442 325.517 194.953 325.214C195.473 324.911 196.049 324.759 196.682 324.759C197.306 324.759 197.848 324.893 198.307 325.162C198.766 325.431 199.109 325.769 199.334 326.176V324.876H200.53V332H199.334V330.674C199.1 331.09 198.749 331.437 198.281 331.714C197.822 331.983 197.284 332.117 196.669 332.117C196.036 332.117 195.464 331.961 194.953 331.649C194.442 331.337 194.039 330.899 193.744 330.336C193.449 329.773 193.302 329.131 193.302 328.412ZM199.334 328.425C199.334 327.888 199.226 327.42 199.009 327.021C198.792 326.622 198.498 326.319 198.125 326.111C197.761 325.894 197.358 325.786 196.916 325.786C196.474 325.786 196.071 325.89 195.707 326.098C195.343 326.306 195.053 326.609 194.836 327.008C194.619 327.407 194.511 327.875 194.511 328.412C194.511 328.958 194.619 329.435 194.836 329.842C195.053 330.241 195.343 330.548 195.707 330.765C196.071 330.973 196.474 331.077 196.916 331.077C197.358 331.077 197.761 330.973 198.125 330.765C198.498 330.548 198.792 330.241 199.009 329.842C199.226 329.435 199.334 328.962 199.334 328.425ZM211.096 324.746C211.651 324.746 212.145 324.863 212.578 325.097C213.012 325.322 213.354 325.665 213.605 326.124C213.857 326.583 213.982 327.142 213.982 327.801V332H212.812V327.97C212.812 327.259 212.635 326.718 212.279 326.345C211.933 325.964 211.46 325.773 210.862 325.773C210.247 325.773 209.757 325.972 209.393 326.371C209.029 326.761 208.847 327.329 208.847 328.074V332H207.677V327.97C207.677 327.259 207.5 326.718 207.144 326.345C206.798 325.964 206.325 325.773 205.727 325.773C205.112 325.773 204.622 325.972 204.258 326.371C203.894 326.761 203.712 327.329 203.712 328.074V332H202.529V324.876H203.712V325.903C203.946 325.53 204.258 325.244 204.648 325.045C205.047 324.846 205.485 324.746 205.961 324.746C206.559 324.746 207.088 324.88 207.547 325.149C208.007 325.418 208.349 325.812 208.574 326.332C208.774 325.829 209.103 325.439 209.562 325.162C210.022 324.885 210.533 324.746 211.096 324.746Z" fill="black"/>
</svg>
