<svg width="436" height="314" viewBox="0 0 436 314" fill="none" xmlns="http://www.w3.org/2000/svg">
<path d="M54.5 15C40.0457 15 26.1834 19.1089 15.9627 26.4228C5.74195 33.7368 0 43.6566 0 54L0 303.464C0.000572655 305.393 0.800948 307.279 2.29983 308.882C3.7987 310.486 5.9287 311.735 8.42023 312.472C10.9118 313.209 13.6528 313.4 16.2965 313.022C18.9401 312.644 21.3676 311.713 23.2715 310.347L70.1391 252.805C75.2483 249.148 113.055 249.001 120.282 249H381.5C395.954 249 409.817 244.891 420.037 237.577C430.258 230.263 436 220.343 436 210V54C436 43.6566 430.258 33.7368 420.037 26.4228C409.817 19.1089 395.954 15 381.5 15L54.5 15Z" fill="#B0EEA6"/>
<path d="M47.03 79.9C45.1233 79.9 43.5633 79.51 42.35 78.73C41.1367 77.95 40.14 76.9533 39.36 75.74C38.4933 74.2667 37.8867 72.75 37.54 71.19C37.28 69.5433 37.15 68.2 37.15 67.16C37.15 62.9133 38.2333 59.0567 40.4 55.59C42.5667 52.1233 45.9467 49.3067 50.54 47.14L51.71 49.48C49.0233 50.6067 46.6833 52.3833 44.69 54.81C42.7833 57.2367 41.83 59.7067 41.83 62.22C41.83 63.26 41.96 64.17 42.22 64.95C43.6067 63.8233 45.21 63.26 47.03 63.26C49.2833 63.26 51.2333 63.9967 52.88 65.47C54.5267 66.9433 55.35 68.98 55.35 71.58C55.35 74.0067 54.5267 76 52.88 77.56C51.2333 79.12 49.2833 79.9 47.03 79.9Z" fill="#145843" fill-opacity="0.74"/>
<path d="M72.03 79.9C70.1233 79.9 68.5633 79.51 67.35 78.73C66.1367 77.95 65.14 76.9533 64.36 75.74C63.4933 74.2667 62.8867 72.75 62.54 71.19C62.28 69.5433 62.15 68.2 62.15 67.16C62.15 62.9133 63.2333 59.0567 65.4 55.59C67.5667 52.1233 70.9467 49.3067 75.54 47.14L76.71 49.48C74.0233 50.6067 71.6833 52.3833 69.69 54.81C67.7833 57.2367 66.83 59.7067 66.83 62.22C66.83 63.26 66.96 64.17 67.22 64.95C68.6067 63.8233 70.21 63.26 72.03 63.26C74.2833 63.26 76.2333 63.9967 77.88 65.47C79.5267 66.9433 80.35 68.98 80.35 71.58C80.35 74.0067 79.5267 76 77.88 77.56C76.2333 79.12 74.2833 79.9 72.03 79.9Z" fill="#145843" fill-opacity="0.74"/>
<path d="M387.97 210.9C389.877 210.9 391.437 210.51 392.65 209.73C393.863 208.95 394.86 207.953 395.64 206.74C396.507 205.267 397.113 203.75 397.46 202.19C397.72 200.543 397.85 199.2 397.85 198.16C397.85 193.913 396.767 190.057 394.6 186.59C392.433 183.123 389.053 180.307 384.46 178.14L383.29 180.48C385.977 181.607 388.317 183.383 390.31 185.81C392.217 188.237 393.17 190.707 393.17 193.22C393.17 194.26 393.04 195.17 392.78 195.95C391.393 194.823 389.79 194.26 387.97 194.26C385.717 194.26 383.767 194.997 382.12 196.47C380.473 197.943 379.65 199.98 379.65 202.58C379.65 205.007 380.473 207 382.12 208.56C383.767 210.12 385.717 210.9 387.97 210.9Z" fill="#145843" fill-opacity="0.74"/>
<path d="M362.97 210.9C364.877 210.9 366.437 210.51 367.65 209.73C368.863 208.95 369.86 207.953 370.64 206.74C371.507 205.267 372.113 203.75 372.46 202.19C372.72 200.543 372.85 199.2 372.85 198.16C372.85 193.913 371.767 190.057 369.6 186.59C367.433 183.123 364.053 180.307 359.46 178.14L358.29 180.48C360.977 181.607 363.317 183.383 365.31 185.81C367.217 188.237 368.17 190.707 368.17 193.22C368.17 194.26 368.04 195.17 367.78 195.95C366.393 194.823 364.79 194.26 362.97 194.26C360.717 194.26 358.767 194.997 357.12 196.47C355.473 197.943 354.65 199.98 354.65 202.58C354.65 205.007 355.473 207 357.12 208.56C358.767 210.12 360.717 210.9 362.97 210.9Z" fill="#145843" fill-opacity="0.74"/>
</svg>
