<svg width="60" height="60" viewBox="0 0 60 60" fill="none" xmlns="http://www.w3.org/2000/svg">
<circle cx="30" cy="30" r="30" fill="url(#paint0_linear_964_9914)"/>
<path d="M20 29.6571C20 29.1825 20.3527 28.7902 20.8103 28.7282L20.9375 28.7196L37.4175 28.7204L31.4638 22.7909C31.0969 22.4256 31.0956 21.832 31.4609 21.4651C31.793 21.1316 32.3138 21.1002 32.6814 21.3717L32.7867 21.4623L40.3492 28.9923C40.3976 29.0404 40.4396 29.0925 40.4753 29.1476C40.4853 29.1642 40.4956 29.1811 40.5053 29.1984C40.5142 29.2132 40.5223 29.2286 40.5299 29.2442C40.5405 29.2668 40.5509 29.2902 40.5602 29.314C40.5679 29.3324 40.5742 29.3503 40.5801 29.3684C40.587 29.3907 40.5937 29.4146 40.5994 29.4388C40.6037 29.4557 40.6071 29.4719 40.6101 29.4883C40.6143 29.5125 40.6178 29.5377 40.6203 29.5631C40.6225 29.5825 40.6238 29.6017 40.6246 29.621C40.6248 29.6326 40.625 29.6448 40.625 29.6571L40.6245 29.6934C40.6238 29.7118 40.6226 29.7302 40.6208 29.7486L40.625 29.6571C40.625 29.7163 40.6195 29.7742 40.609 29.8303C40.6066 29.8437 40.6037 29.8574 40.6005 29.8711C40.5938 29.8994 40.5862 29.9265 40.5773 29.9532C40.5729 29.9664 40.5679 29.9806 40.5625 29.9946C40.5515 30.0228 40.5396 30.0497 40.5265 30.0759C40.5204 30.0882 40.5136 30.1011 40.5065 30.1139C40.4947 30.1347 40.4827 30.1545 40.4699 30.1738C40.4609 30.1874 40.4509 30.2016 40.4405 30.2156L40.4324 30.2264C40.4072 30.2594 40.3797 30.2907 40.3504 30.32L40.3493 30.3209L32.7868 37.8521C32.4199 38.2175 31.8263 38.2163 31.461 37.8494C31.1288 37.5159 31.0996 36.995 31.3727 36.6285L31.4637 36.5236L37.415 30.5954L20.9375 30.5946C20.4197 30.5946 20 30.1749 20 29.6571Z" fill="white"/>
<defs>
<linearGradient id="paint0_linear_964_9914" x1="30" y1="0" x2="30" y2="60" gradientUnits="userSpaceOnUse">
<stop stop-color="#2ABB88"/>
<stop offset="0.447917" stop-color="#11A577"/>
<stop offset="1" stop-color="#40C795"/>
</linearGradient>
</defs>
</svg>
