<svg width="60" height="60" viewBox="0 0 60 60" fill="none" xmlns="http://www.w3.org/2000/svg">
<circle r="30" transform="matrix(-1 0 0 1 30 30)" fill="url(#paint0_linear_964_9915)"/>
<path d="M40 29.6571C40 29.1825 39.6473 28.7902 39.1897 28.7282L39.0625 28.7196L22.5825 28.7204L28.5362 22.7909C28.9031 22.4256 28.9044 21.832 28.5391 21.4651C28.207 21.1316 27.6862 21.1002 27.3186 21.3717L27.2133 21.4623L19.6508 28.9923C19.6024 29.0404 19.5604 29.0925 19.5247 29.1476C19.5147 29.1642 19.5044 29.1811 19.4947 29.1984C19.4858 29.2132 19.4777 29.2286 19.4701 29.2442C19.4595 29.2668 19.4491 29.2902 19.4398 29.314C19.4321 29.3324 19.4258 29.3503 19.4199 29.3684C19.413 29.3907 19.4063 29.4146 19.4006 29.4388C19.3963 29.4557 19.3929 29.4719 19.3899 29.4883C19.3857 29.5125 19.3822 29.5377 19.3797 29.5631C19.3775 29.5825 19.3762 29.6017 19.3754 29.621C19.3752 29.6326 19.375 29.6448 19.375 29.6571L19.3755 29.6934C19.3762 29.7118 19.3774 29.7302 19.3792 29.7486L19.375 29.6571C19.375 29.7163 19.3805 29.7742 19.391 29.8303C19.3934 29.8437 19.3963 29.8574 19.3995 29.8711C19.4062 29.8994 19.4138 29.9265 19.4227 29.9532C19.4271 29.9664 19.4321 29.9806 19.4375 29.9946C19.4485 30.0228 19.4604 30.0497 19.4735 30.0759C19.4796 30.0882 19.4864 30.1011 19.4935 30.1139C19.5053 30.1347 19.5173 30.1545 19.5301 30.1738C19.5391 30.1874 19.5491 30.2016 19.5595 30.2156L19.5676 30.2264C19.5928 30.2594 19.6203 30.2907 19.6496 30.32L19.6507 30.3209L27.2132 37.8521C27.5801 38.2175 28.1737 38.2163 28.539 37.8494C28.8712 37.5159 28.9004 36.995 28.6273 36.6285L28.5363 36.5236L22.585 30.5954L39.0625 30.5946C39.5803 30.5946 40 30.1749 40 29.6571Z" fill="white"/>
<defs>
<linearGradient id="paint0_linear_964_9915" x1="30" y1="0" x2="30" y2="60" gradientUnits="userSpaceOnUse">
<stop stop-color="#2ABB88"/>
<stop offset="0.447917" stop-color="#11A577"/>
<stop offset="1" stop-color="#40C795"/>
</linearGradient>
</defs>
</svg>
