<svg width="48" height="48" viewBox="0 0 48 48" fill="none" xmlns="http://www.w3.org/2000/svg">
<path d="M14.668 24.32C14.668 24.763 14.9971 25.1291 15.4242 25.187L15.543 25.195L30.9243 25.1943L25.3675 30.7284C25.025 31.0694 25.0238 31.6234 25.3648 31.9659C25.6748 32.2772 26.1608 32.3065 26.5039 32.0531L26.6023 31.9685L33.6606 24.9405C33.7057 24.8956 33.7449 24.847 33.7782 24.7956C33.7876 24.7801 33.7972 24.7643 33.8062 24.7482C33.8146 24.7343 33.8221 24.72 33.8292 24.7055C33.8391 24.6843 33.8488 24.6625 33.8575 24.6402C33.8646 24.6231 33.8706 24.6063 33.876 24.5895C33.8825 24.5686 33.8887 24.5464 33.8941 24.5238C33.8981 24.508 33.9013 24.4929 33.9041 24.4776C33.9079 24.455 33.9113 24.4315 33.9136 24.4078C33.9157 24.3897 33.9169 24.3717 33.9176 24.3538C33.9177 24.3429 33.918 24.3315 33.918 24.32L33.9175 24.2861C33.9169 24.269 33.9157 24.2518 33.914 24.2347L33.918 24.32C33.918 24.2648 33.9129 24.2108 33.9031 24.1584C33.9008 24.1459 33.8981 24.1331 33.8951 24.1203C33.8889 24.0939 33.8817 24.0686 33.8734 24.0437C33.8694 24.0313 33.8647 24.0181 33.8596 24.005C33.8494 23.9787 33.8383 23.9536 33.826 23.9292C33.8204 23.9177 33.814 23.9056 33.8073 23.8937C33.7964 23.8743 33.7851 23.8558 33.7732 23.8378C33.7648 23.8251 33.7555 23.8118 33.7458 23.7988L33.7382 23.7887C33.7146 23.7579 33.6891 23.7287 33.6617 23.7013L33.6606 23.7005L26.6023 16.6713C26.2599 16.3303 25.7059 16.3315 25.3649 16.6739C25.0549 16.9852 25.0276 17.4713 25.2825 17.8134L25.3674 17.9113L30.922 23.4443L15.543 23.445C15.0597 23.445 14.668 23.8368 14.668 24.32Z" fill="black"/>
<rect x="-0.5" y="0.5" width="47" height="47" transform="matrix(-1 0 0 1 47 0)" stroke="black"/>
</svg>
