<svg width="21" height="18" viewBox="0 0 21 18" fill="none" xmlns="http://www.w3.org/2000/svg">
<path d="M21 9.34289C21 9.81751 20.6473 10.2098 20.1897 10.2718L20.0625 10.2804L3.5825 10.2796L9.53623 16.2091C9.90314 16.5744 9.90442 17.168 9.53909 17.5349C9.20697 17.8684 8.68621 17.8998 8.31861 17.6283L8.21327 17.5377L0.650766 10.0077C0.602404 9.95957 0.560396 9.90745 0.524744 9.85242C0.514673 9.83585 0.504423 9.8189 0.494705 9.80161C0.485767 9.78679 0.47769 9.7714 0.47007 9.75585C0.459486 9.73321 0.449144 9.70982 0.439756 9.68596C0.432129 9.66756 0.425758 9.64966 0.419949 9.63163C0.413042 9.60926 0.40633 9.58542 0.400558 9.56122C0.396267 9.54433 0.392868 9.52807 0.389904 9.51174C0.385735 9.48745 0.382185 9.46232 0.379654 9.43689C0.377468 9.41749 0.376152 9.39827 0.375423 9.37903C0.375237 9.36737 0.375 9.35515 0.375 9.34289L0.375469 9.30657C0.376188 9.28817 0.377445 9.26979 0.379242 9.25145L0.375 9.34289C0.375 9.28373 0.38048 9.22584 0.390961 9.16972C0.393391 9.15632 0.396286 9.14256 0.399492 9.12886C0.406153 9.10063 0.413849 9.07346 0.42271 9.04681C0.427059 9.03358 0.432127 9.01943 0.437542 9.00539C0.448498 8.97719 0.460405 8.95029 0.473505 8.9241C0.479591 8.91178 0.486406 8.89889 0.493544 8.88613C0.50526 8.8653 0.517328 8.84552 0.53009 8.82623C0.539095 8.81258 0.549067 8.79837 0.559479 8.78438L0.567593 8.77358C0.59285 8.74058 0.620251 8.70931 0.649586 8.67997L0.650711 8.6791L8.21321 1.14785C8.58008 0.782492 9.17368 0.783721 9.53903 1.1506C9.87118 1.48412 9.90036 2.00501 9.62728 2.37146L9.53629 2.47642L3.585 8.40464L20.0625 8.40539C20.5803 8.40539 21 8.82512 21 9.34289Z" fill="#D9D9D9"/>
</svg>
