<svg width="48" height="48" viewBox="0 0 48 48" fill="none" xmlns="http://www.w3.org/2000/svg">
<path d="M33.333 24.32C33.333 24.7629 33.0038 25.129 32.5767 25.187L32.458 25.195L17.0767 25.1943L22.6335 30.7284C22.9759 31.0694 22.9771 31.6234 22.6362 31.9658C22.3262 32.2771 21.8401 32.3064 21.497 32.053L21.3987 31.9685L14.3404 24.9405C14.2953 24.8955 14.256 24.8469 14.2228 24.7955C14.2134 24.7801 14.2038 24.7642 14.1947 24.7481C14.1864 24.7343 14.1789 24.7199 14.1717 24.7054C14.1619 24.6843 14.1522 24.6624 14.1434 24.6402C14.1363 24.623 14.1304 24.6063 14.125 24.5895C14.1185 24.5686 14.1123 24.5463 14.1069 24.5237C14.1029 24.508 14.0997 24.4928 14.0969 24.4776C14.093 24.4549 14.0897 24.4314 14.0874 24.4077C14.0853 24.3896 14.0841 24.3717 14.0834 24.3537C14.0832 24.3428 14.083 24.3314 14.083 24.32L14.0834 24.2861C14.0841 24.2689 14.0853 24.2517 14.087 24.2346L14.083 24.32C14.083 24.2647 14.0881 24.2107 14.0979 24.1583C14.1002 24.1458 14.1029 24.133 14.1059 24.1202C14.1121 24.0939 14.1193 24.0685 14.1275 24.0436C14.1316 24.0313 14.1363 24.0181 14.1414 24.005C14.1516 23.9786 14.1627 23.9535 14.1749 23.9291C14.1806 23.9176 14.187 23.9056 14.1936 23.8937C14.2046 23.8742 14.2158 23.8557 14.2278 23.8377C14.2362 23.825 14.2455 23.8117 14.2552 23.7987L14.2628 23.7886C14.2863 23.7578 14.3119 23.7286 14.3393 23.7012L14.3403 23.7004L21.3987 16.6713C21.7411 16.3303 22.2951 16.3314 22.6361 16.6738C22.9461 16.9851 22.9733 17.4713 22.7185 17.8133L22.6335 17.9113L17.079 23.4443L32.458 23.445C32.9413 23.445 33.333 23.8367 33.333 24.32Z" fill="black"/>
<rect x="0.5" y="0.5" width="47" height="47" stroke="black"/>
</svg>
