<svg width="19" height="19" viewBox="0 0 19 19" fill="none" xmlns="http://www.w3.org/2000/svg">
<path d="M17.8227 16.743C18.403 16.743 18.875 17.2211 18.875 17.809C18.875 18.398 18.403 18.875 17.8227 18.875H11.8747C11.2944 18.875 10.8224 18.398 10.8224 17.809C10.8224 17.2211 11.2944 16.743 11.8747 16.743H17.8227ZM13.6978 0.853191L15.2342 2.07373C15.8643 2.56643 16.2843 3.21589 16.428 3.89895C16.5938 4.65031 16.417 5.38823 15.9196 6.0265L6.76708 17.8624C6.34704 18.3999 5.72803 18.7022 5.06481 18.7134L1.41708 18.7582C1.21811 18.7582 1.05231 18.6238 1.00809 18.4335L0.179061 14.839C0.0353625 14.1784 0.179061 13.4953 0.599102 12.969L7.08764 4.57081C7.19818 4.43643 7.39714 4.41516 7.52979 4.51482L10.2601 6.68716C10.4369 6.83273 10.6801 6.91111 10.9343 6.87752C11.476 6.81033 11.8407 6.31764 11.7855 5.79135C11.7523 5.5226 11.6197 5.29865 11.4428 5.13069C11.3875 5.0859 8.78991 3.00314 8.78991 3.00314C8.62411 2.86877 8.59095 2.62242 8.72359 2.45557L9.75159 1.12193C10.7022 -0.0986076 12.3603 -0.210584 13.6978 0.853191Z" fill="black"/>
</svg>
