<svg width="20" height="20" viewBox="0 0 20 20" fill="none" xmlns="http://www.w3.org/2000/svg">
<path d="M14.34 -0.000854492C17.73 -0.000854492 20 2.37915 20 5.91915V14.0901C20 17.6201 17.73 19.9991 14.34 19.9991H5.67C2.28 19.9991 0 17.6201 0 14.0901V5.91915C0 2.37915 2.28 -0.000854492 5.67 -0.000854492H14.34ZM13.01 6.97015C12.67 6.62915 12.12 6.62915 11.77 6.97015L10 8.74915L8.22 6.97015C7.87 6.62915 7.32 6.62915 6.98 6.97015C6.64 7.31015 6.64 7.87015 6.98 8.20915L8.76 9.99015L6.98 11.7601C6.64 12.1101 6.64 12.6601 6.98 12.9991C7.15 13.1691 7.38 13.2601 7.6 13.2601C7.83 13.2601 8.05 13.1691 8.22 12.9991L10 11.2301L11.78 12.9991C11.95 13.1801 12.17 13.2601 12.39 13.2601C12.62 13.2601 12.84 13.1691 13.01 12.9991C13.35 12.6601 13.35 12.1101 13.01 11.7701L11.23 9.99015L13.01 8.20915C13.35 7.87015 13.35 7.31015 13.01 6.97015Z" fill="#145843"/>
</svg>
