<svg width="48" height="48" viewBox="0 0 48 48" fill="none" xmlns="http://www.w3.org/2000/svg">
<path d="M33.334 24.32C33.334 24.763 33.0048 25.1291 32.5777 25.187L32.459 25.195L17.0777 25.1943L22.6345 30.7284C22.9769 31.0694 22.9781 31.6234 22.6371 31.9659C22.3272 32.2772 21.8411 32.3065 21.498 32.0531L21.3997 31.9685L14.3414 24.9405C14.2962 24.8956 14.257 24.847 14.2237 24.7956C14.2143 24.7801 14.2048 24.7643 14.1957 24.7482C14.1874 24.7343 14.1798 24.72 14.1727 24.7055C14.1628 24.6843 14.1532 24.6625 14.1444 24.6402C14.1373 24.6231 14.1314 24.6063 14.1259 24.5895C14.1195 24.5686 14.1132 24.5464 14.1078 24.5238C14.1038 24.508 14.1007 24.4929 14.0979 24.4776C14.094 24.455 14.0907 24.4315 14.0883 24.4078C14.0863 24.3897 14.0851 24.3717 14.0844 24.3538C14.0842 24.3429 14.084 24.3315 14.084 24.32L14.0844 24.2861C14.0851 24.269 14.0863 24.2518 14.0879 24.2347L14.084 24.32C14.084 24.2648 14.0891 24.2108 14.0989 24.1584C14.1011 24.1459 14.1039 24.1331 14.1068 24.1203C14.1131 24.0939 14.1202 24.0686 14.1285 24.0437C14.1326 24.0313 14.1373 24.0181 14.1424 24.005C14.1526 23.9787 14.1637 23.9536 14.1759 23.9292C14.1816 23.9177 14.188 23.9056 14.1946 23.8937C14.2056 23.8743 14.2168 23.8558 14.2287 23.8378C14.2371 23.8251 14.2464 23.8118 14.2562 23.7988L14.2637 23.7887C14.2873 23.7579 14.3129 23.7287 14.3403 23.7013L14.3413 23.7005L21.3996 16.6713C21.7421 16.3303 22.2961 16.3315 22.6371 16.6739C22.9471 16.9852 22.9743 17.4713 22.7194 17.8134L22.6345 17.9113L17.08 23.4443L32.459 23.445C32.9422 23.445 33.334 23.8368 33.334 24.32Z" fill="black"/>
<rect x="0.5" y="0.5" width="47" height="47" stroke="black"/>
</svg>
