<svg width="48" height="48" viewBox="0 0 48 48" fill="none" xmlns="http://www.w3.org/2000/svg">
<path d="M14.667 24.32C14.667 24.7629 14.9962 25.129 15.4233 25.187L15.542 25.195L30.9233 25.1943L25.3665 30.7284C25.0241 31.0694 25.0229 31.6234 25.3638 31.9658C25.6738 32.2771 26.1599 32.3064 26.503 32.053L26.6013 31.9685L33.6596 24.9405C33.7047 24.8955 33.744 24.8469 33.7772 24.7955C33.7866 24.7801 33.7962 24.7642 33.8053 24.7481C33.8136 24.7343 33.8211 24.7199 33.8283 24.7054C33.8381 24.6843 33.8478 24.6624 33.8566 24.6402C33.8637 24.623 33.8696 24.6063 33.875 24.5895C33.8815 24.5686 33.8877 24.5463 33.8931 24.5237C33.8971 24.508 33.9003 24.4928 33.9031 24.4776C33.907 24.4549 33.9103 24.4314 33.9126 24.4077C33.9147 24.3896 33.9159 24.3717 33.9166 24.3537C33.9168 24.3428 33.917 24.3314 33.917 24.32L33.9166 24.2861C33.9159 24.2689 33.9147 24.2517 33.913 24.2346L33.917 24.32C33.917 24.2647 33.9119 24.2107 33.9021 24.1583C33.8998 24.1458 33.8971 24.133 33.8941 24.1202C33.8879 24.0939 33.8807 24.0685 33.8725 24.0436C33.8684 24.0313 33.8637 24.0181 33.8586 24.005C33.8484 23.9786 33.8373 23.9535 33.8251 23.9291C33.8194 23.9176 33.813 23.9056 33.8064 23.8937C33.7954 23.8742 33.7842 23.8558 33.7722 23.8377C33.7638 23.825 33.7545 23.8117 33.7448 23.7987L33.7372 23.7886C33.7137 23.7578 33.6881 23.7286 33.6607 23.7012L33.6597 23.7004L26.6013 16.6713C26.2589 16.3303 25.7049 16.3314 25.3639 16.6738C25.0539 16.9851 25.0267 17.4713 25.2815 17.8133L25.3665 17.9113L30.921 23.4443L15.542 23.445C15.0587 23.445 14.667 23.8367 14.667 24.32Z" fill="black"/>
<rect x="-0.5" y="0.5" width="47" height="47" transform="matrix(-1 0 0 1 47 0)" stroke="black"/>
</svg>
