<svg width="22" height="28" viewBox="0 0 22 28" fill="none" xmlns="http://www.w3.org/2000/svg">
<path d="M11 0C8.08369 0.00344047 5.28779 1.16347 3.22564 3.22563C1.16348 5.28778 0.00345217 8.08367 1.17029e-05 11C-0.00348119 13.3832 0.774992 15.7018 2.21601 17.6C2.21601 17.6 2.51601 17.995 2.56501 18.052L11 28L19.439 18.047C19.483 17.994 19.784 17.6 19.784 17.6L19.785 17.597C21.2253 15.6996 22.0034 13.3821 22 11C21.9966 8.08367 20.8365 5.28778 18.7744 3.22563C16.7122 1.16347 13.9163 0.00344047 11 0ZM11 6C11.5934 6 12.1734 6.17595 12.6667 6.50559C13.1601 6.83524 13.5446 7.30377 13.7717 7.85195C13.9987 8.40013 14.0581 9.00333 13.9424 9.58527C13.8266 10.1672 13.5409 10.7018 13.1213 11.1213C12.7018 11.5409 12.1672 11.8266 11.5853 11.9424C11.0033 12.0581 10.4001 11.9987 9.85196 11.7716C9.30378 11.5446 8.83525 11.1601 8.5056 10.6667C8.17596 10.1734 8.00001 9.59334 8.00001 9C8.00081 8.20459 8.31713 7.44199 8.87957 6.87956C9.44201 6.31712 10.2046 6.00079 11 6ZM15 17H13V15H9.00001V17H7.00001V15C7.00054 14.4697 7.21143 13.9613 7.58638 13.5864C7.96134 13.2114 8.46974 13.0005 9.00001 13H13C13.5303 13.0005 14.0387 13.2114 14.4136 13.5864C14.7886 13.9613 14.9995 14.4697 15 15V17Z" fill="white"/>
</svg>
