<svg width="20" height="34" viewBox="0 0 20 34" fill="none" xmlns="http://www.w3.org/2000/svg">
<path d="M10.6999 33.4962C8.79326 33.4962 7.23326 33.1062 6.01992 32.3262C4.80659 31.5462 3.80992 30.5495 3.02992 29.3362C2.16326 27.8629 1.55659 26.3462 1.20992 24.7862C0.949922 23.1395 0.819922 21.7962 0.819922 20.7562C0.819922 16.5095 1.90326 12.6529 4.06992 9.18619C6.23659 5.71952 9.61659 2.90285 14.2099 0.736183L15.3799 3.07618C12.6933 4.20285 10.3533 5.97952 8.35992 8.40619C6.45326 10.8329 5.49992 13.3029 5.49992 15.8162C5.49992 16.8562 5.62992 17.7662 5.88992 18.5462C7.27659 17.4195 8.87992 16.8562 10.6999 16.8562C12.9533 16.8562 14.9033 17.5929 16.5499 19.0662C18.1966 20.5395 19.0199 22.5762 19.0199 25.1762C19.0199 27.6029 18.1966 29.5962 16.5499 31.1562C14.9033 32.7162 12.9533 33.4962 10.6999 33.4962Z" fill="#145843" fill-opacity="0.74"/>
</svg>
