<svg width="20" height="17" viewBox="0 0 20 17" fill="none" xmlns="http://www.w3.org/2000/svg">
<path d="M0.666992 8.32002C0.666992 8.763 0.996172 9.12909 1.42326 9.18703L1.54199 9.19502L16.9233 9.19432L11.3665 14.7284C11.0241 15.0694 11.0229 15.6234 11.3638 15.9659C11.6738 16.2772 12.1599 16.3065 12.503 16.053L12.6013 15.9685L19.6596 8.94054C19.7047 8.89559 19.744 8.84695 19.7772 8.79558C19.7866 8.78012 19.7962 8.7643 19.8053 8.74816C19.8136 8.73433 19.8211 8.71997 19.8283 8.70545C19.8381 8.68432 19.8478 8.66249 19.8566 8.64022C19.8637 8.62305 19.8696 8.60634 19.875 8.58951C19.8815 8.56863 19.8877 8.54639 19.8931 8.5238C19.8971 8.50803 19.9003 8.49286 19.9031 8.47762C19.907 8.45495 19.9103 8.43149 19.9126 8.40775C19.9147 8.38965 19.9159 8.37171 19.9166 8.35376C19.9168 8.34287 19.917 8.33147 19.917 8.32002L19.9166 8.28612C19.9159 8.26895 19.9147 8.25179 19.913 8.23468L19.917 8.32002C19.917 8.2648 19.9119 8.21078 19.9021 8.1584C19.8998 8.14589 19.8971 8.13305 19.8941 8.12026C19.8879 8.09392 19.8807 8.06855 19.8725 8.04369C19.8684 8.03133 19.8637 8.01813 19.8586 8.00503C19.8484 7.9787 19.8373 7.9536 19.8251 7.92915C19.8194 7.91766 19.813 7.90562 19.8064 7.89371C19.7954 7.87428 19.7842 7.85581 19.7722 7.83781C19.7638 7.82506 19.7545 7.8118 19.7448 7.79875L19.7372 7.78867C19.7137 7.75787 19.6881 7.72868 19.6607 7.7013L19.6597 7.70049L12.6013 0.671319C12.2589 0.330318 11.7049 0.331465 11.3639 0.673881C11.0539 0.985168 11.0267 1.47133 11.2815 1.81335L11.3665 1.91132L16.921 7.44432L1.54199 7.44502C1.05874 7.44502 0.666992 7.83677 0.666992 8.32002Z" fill="black"/>
</svg>
